<svg xmlns="http://www.w3.org/2000/svg" xmlns:xlink="http://www.w3.org/1999/xlink" width="500" zoomAndPan="magnify" viewBox="0 0 375 374.999991" height="500" preserveAspectRatio="xMidYMid meet" version="1.0"><defs><clipPath id="79a8b445a9"><path d="M 84.496094 88 L 296 88 L 296 233.070312 L 84.496094 233.070312 Z M 84.496094 88 " clip-rule="nonzero"/></clipPath><clipPath id="fdfd8daf64"><path d="M 272.070312 54.222656 L 313.886719 54.222656 L 313.886719 96 L 272.070312 96 Z M 272.070312 54.222656 " clip-rule="nonzero"/></clipPath></defs><g clip-path="url(#79a8b445a9)"><path fill="#005c90" d="M 109.523438 88.152344 L 200.085938 88.152344 L 200.085938 95.566406 L 120.339844 95.566406 C 117.382812 95.566406 114.960938 97.992188 114.960938 100.960938 L 114.960938 185.4375 C 114.960938 188.40625 117.382812 190.828125 120.339844 190.828125 L 259.230469 190.828125 C 262.1875 190.828125 264.605469 188.402344 264.605469 185.4375 L 264.605469 158.476562 L 276.253906 158.476562 L 276.253906 192.011719 C 276.253906 194.121094 275.195312 195.988281 273.589844 197.121094 L 276.253906 197.121094 C 276.253906 197.121094 282.824219 204.910156 295.96875 220.484375 C 294.175781 227.609375 290.589844 231.804688 285.214844 233.066406 C 285.214844 233.066406 222.488281 233.066406 97.042969 233.066406 C 90.847656 232.90625 86.667969 228.710938 84.496094 220.484375 C 84.496094 220.484375 91.066406 212.699219 104.210938 197.121094 L 105.976562 197.121094 C 104.367188 195.988281 103.3125 194.121094 103.3125 192.011719 L 103.3125 94.382812 C 103.3125 90.957031 106.109375 88.152344 109.523438 88.152344 Z M 174.996094 224.078125 L 205.460938 224.078125 C 206.945312 224.078125 208.152344 225.292969 208.152344 226.777344 C 208.152344 228.261719 206.945312 229.472656 205.460938 229.472656 L 174.996094 229.472656 C 173.519531 229.472656 172.308594 228.261719 172.308594 226.777344 C 172.308594 225.292969 173.519531 224.078125 174.996094 224.078125 Z M 157.972656 221.386719 C 161.558594 215.992188 163.351562 213.296875 163.351562 213.296875 C 199.191406 213.296875 217.113281 213.296875 217.113281 213.296875 C 220.699219 218.691406 222.488281 221.386719 222.488281 221.386719 C 179.480469 221.386719 157.972656 221.386719 157.972656 221.386719 Z M 157.972656 221.386719 " fill-opacity="1" fill-rule="evenodd"/></g><path fill="#12229d" d="M 175.894531 144.996094 L 193.816406 144.996094 L 193.816406 162.96875 L 175.894531 162.96875 Z M 175.894531 144.996094 " fill-opacity="1" fill-rule="evenodd"/><path fill="#050a30" d="M 203.671875 144.097656 L 219.582031 144.097656 L 219.582031 160.054688 L 203.671875 160.054688 Z M 203.671875 144.097656 " fill-opacity="1" fill-rule="evenodd"/><path fill="#011c43" d="M 260.0625 116.230469 L 294.121094 116.230469 L 294.121094 150.386719 L 260.0625 150.386719 Z M 260.0625 116.230469 " fill-opacity="1" fill-rule="evenodd"/><path fill="#f4f6fc" d="M 233.351562 137.914062 L 252.957031 137.914062 L 252.957031 157.578125 L 233.351562 157.578125 Z M 233.351562 137.914062 " fill-opacity="1" fill-rule="evenodd"/><path fill="#12229d" d="M 215.429688 116.347656 L 235.035156 116.347656 L 235.035156 136.007812 L 215.429688 136.007812 Z M 215.429688 116.347656 " fill-opacity="1" fill-rule="evenodd"/><path fill="#011c43" d="M 208.207031 91.128906 L 227.8125 91.128906 L 227.8125 110.789062 L 208.207031 110.789062 Z M 208.207031 91.128906 " fill-opacity="1" fill-rule="evenodd"/><path fill="#f4f6fc" d="M 187.652344 124.4375 L 203.5625 124.4375 L 203.5625 140.394531 L 187.652344 140.394531 Z M 187.652344 124.4375 " fill-opacity="1" fill-rule="evenodd"/><path fill="#050a30" d="M 238.617188 82.984375 L 266.394531 82.984375 L 266.394531 110.84375 L 238.617188 110.84375 Z M 238.617188 82.984375 " fill-opacity="1" fill-rule="evenodd"/><path fill="#12229d" d="M 244.050781 56.976562 L 263.65625 56.976562 L 263.65625 76.640625 L 244.050781 76.640625 Z M 244.050781 56.976562 " fill-opacity="1" fill-rule="evenodd"/><g clip-path="url(#fdfd8daf64)"><path fill="#f4f6fc" d="M 272.664062 54.226562 L 313.886719 54.226562 L 313.886719 95.566406 L 272.664062 95.566406 Z M 272.664062 54.226562 " fill-opacity="1" fill-rule="evenodd"/></g><path fill="#005c90" d="M 161.980469 296.871094 C 169.570312 296.871094 175.003906 292.265625 175.546875 285.414062 L 166.878906 284.285156 C 166.585938 287.324219 164.773438 289.332031 162.371094 289.332031 C 159.679688 289.332031 157.71875 286.878906 157.671875 283.257812 C 157.621094 279.632812 159.433594 277.183594 161.980469 277.183594 C 163.988281 277.183594 165.699219 278.605469 165.945312 281.742188 L 174.46875 279.484375 C 173.535156 273.5625 168.445312 269.644531 161.6875 269.644531 C 153.609375 269.644531 148.222656 275.082031 148.222656 283.257812 C 148.222656 291.4375 153.707031 296.871094 161.980469 296.871094 Z M 161.980469 296.871094 " fill-opacity="1" fill-rule="nonzero"/><path fill="#005c90" d="M 193.015625 296.871094 C 198.304688 296.871094 203.054688 294.863281 205.257812 291.875 L 200.460938 287.46875 C 198.941406 289.183594 196.152344 290.257812 193.457031 290.257812 C 189.929688 290.257812 187.386719 288.546875 187.042969 285.804688 L 204.328125 285.804688 C 204.621094 284.824219 204.816406 283.453125 204.816406 282.179688 C 204.765625 274.640625 199.480469 269.644531 191.351562 269.644531 C 182.878906 269.644531 177.246094 275.082031 177.296875 283.160156 C 177.296875 291.386719 183.710938 296.871094 193.015625 296.871094 Z M 186.945312 280.90625 C 187.238281 277.96875 188.953125 276.058594 191.300781 276.058594 C 193.601562 276.058594 195.171875 277.917969 195.269531 280.90625 Z M 186.945312 280.90625 " fill-opacity="1" fill-rule="nonzero"/><path fill="#005c90" d="M 225.863281 269.988281 C 222.042969 269.988281 218.90625 272.09375 217.292969 275.714844 L 217.242188 275.714844 L 215.679688 270.625 L 207.792969 270.625 L 207.792969 295.890625 L 217.242188 295.890625 L 217.242188 282.132812 C 217.242188 279.484375 218.808594 277.871094 221.164062 277.871094 C 223.023438 277.871094 224.148438 279.144531 224.148438 281.199219 L 224.148438 295.890625 L 233.648438 295.890625 L 233.648438 277.917969 C 233.648438 272.925781 230.710938 269.988281 225.863281 269.988281 Z M 225.863281 269.988281 " fill-opacity="1" fill-rule="nonzero"/></svg>