<svg width="90" height="86" viewBox="0 0 90 86" fill="none" xmlns="http://www.w3.org/2000/svg">
<mask id="mask0_599_510" style="mask-type:luminance" maskUnits="userSpaceOnUse" x="15" y="17" width="60" height="40">
<path d="M15.3357 17.4293H74.1601V56.072H15.3357V17.4293Z" fill="white"/>
</mask>
<g mask="url(#mask0_599_510)">
<path fill-rule="evenodd" clip-rule="evenodd" d="M22.2882 17.6058H47.4441V19.574H25.2919C24.4707 19.574 23.7985 20.2181 23.7985 21.0055V43.4291C23.7985 44.2166 24.4707 44.8598 25.2919 44.8598H63.8729C64.6941 44.8598 65.3663 44.2157 65.3663 43.4291V36.2723H68.6016V45.1742C68.6016 45.7332 68.3082 46.2295 67.8619 46.5296H68.6016C68.6016 46.5296 70.4269 48.5972 74.0776 52.7315C73.5798 54.6226 72.5841 55.7361 71.0907 56.0711C71.0907 56.0711 53.6673 56.0711 18.8204 56.0711C17.1001 56.0281 15.9385 54.9146 15.3357 52.7315C15.3357 52.7315 17.161 50.6648 20.8116 46.5296H21.3029C20.8557 46.2295 20.5623 45.7332 20.5623 45.1742V19.2595C20.5623 18.3503 21.3394 17.6058 22.2882 17.6058ZM40.4748 53.6855H48.9376C49.3491 53.6855 49.6848 54.008 49.6848 54.4013C49.6848 54.7955 49.3491 55.1171 48.9376 55.1171H40.4748C40.0641 55.1171 39.7285 54.7955 39.7285 54.4013C39.7285 54.008 40.0641 53.6855 40.4748 53.6855ZM35.746 52.9706C36.7416 51.5391 37.2394 50.8233 37.2394 50.8233C47.1957 50.8233 52.1738 50.8233 52.1738 50.8233C53.1694 52.2549 53.6673 52.9706 53.6673 52.9706C41.7198 52.9706 35.746 52.9706 35.746 52.9706Z" fill="#31B3CD"/>
</g>
<path fill-rule="evenodd" clip-rule="evenodd" d="M40.7241 32.6943H45.7022V37.4646H40.7241V32.6943Z" fill="#12229D"/>
<path fill-rule="evenodd" clip-rule="evenodd" d="M48.4397 32.4561H52.86V36.6916H48.4397V32.4561Z" fill="#0081A7"/>
<path fill-rule="evenodd" clip-rule="evenodd" d="M64.1045 25.0592H73.5648V34.125H64.1045V25.0592Z" fill="#90E0EF"/>
<path fill-rule="evenodd" clip-rule="evenodd" d="M56.6841 30.8148H62.13V36.0339H56.6841V30.8148Z" fill="#F4F6FC"/>
<path fill-rule="evenodd" clip-rule="evenodd" d="M51.7061 25.0896H57.152V30.3087H51.7061V25.0896Z" fill="#12229D"/>
<path fill-rule="evenodd" clip-rule="evenodd" d="M49.6997 18.396H55.1456V23.6151H49.6997V18.396Z" fill="#90E0EF"/>
<path fill-rule="evenodd" clip-rule="evenodd" d="M43.9902 27.2369H48.4096V31.4724H43.9902V27.2369Z" fill="#F4F6FC"/>
<path fill-rule="evenodd" clip-rule="evenodd" d="M58.1465 16.2343H65.863V23.6294H58.1465V16.2343Z" fill="#0081A7"/>
<path fill-rule="evenodd" clip-rule="evenodd" d="M59.656 9.33105H65.1019V14.5502H59.656V9.33105Z" fill="#12229D"/>
<mask id="mask1_599_510" style="mask-type:luminance" maskUnits="userSpaceOnUse" x="67" y="8" width="13" height="12">
<path d="M67.4399 8.59998H79.0556V19.7226H67.4399V8.59998Z" fill="white"/>
</mask>
<g mask="url(#mask1_599_510)">
<path fill-rule="evenodd" clip-rule="evenodd" d="M67.605 8.60095H79.0556V19.574H67.605V8.60095Z" fill="#F4F6FC"/>
</g>
<path d="M35.601 71.569C38.5119 71.569 40.5388 69.9439 40.7835 67.3836L38.0226 67.071C37.8182 68.3449 36.8929 69.1511 35.6413 69.1511C34.1722 69.1511 33.2338 68.163 33.2338 66.5908C33.2338 65.0177 34.0635 64.0171 35.3694 64.0171C36.4447 64.0171 37.1113 64.706 37.3288 65.7846L40.0222 65.1476C39.7222 62.977 37.9138 61.6127 35.3563 61.6127C32.241 61.6127 30.2554 63.5486 30.2554 66.5908C30.2554 69.6322 32.3366 71.569 35.601 71.569Z" fill="white"/>
<path d="M41.7205 71.2437H48.808V69.0337H44.5911V67.4615H48.1273V65.5507H44.5911V64.1469H48.672V61.9369H41.7205V71.2437Z" fill="white"/>
<path d="M49.8132 71.2437H52.5751V65.2909H52.6023L56.0298 71.2437H59.4039V61.9369H56.642V67.9031H56.6148L53.1873 61.9369H49.8132V71.2437Z" fill="white"/>
</svg>
