<svg width="789" height="753" viewBox="0 0 789 753" fill="none" xmlns="http://www.w3.org/2000/svg">
<path d="M703.5 330.363C683.397 197.451 558.85 120.315 460.801 98.4312C407.387 86.5087 349.338 85.7243 296.048 98.7057C250.187 109.867 203.8 125.994 167.646 155.957C159.353 162.836 151.381 170.068 145.677 179.073C133.333 198.604 142.176 224.684 150.304 244.207C160.011 267.535 178.856 297.129 178.38 322.394C176.333 430.928 110.057 454.13 120.659 526.998C126.848 569.488 172.273 589.748 194.801 604.275C292.193 667.048 434.271 663.291 533.068 619.382C630.584 576.029 723.521 462.766 703.5 330.363Z" fill="#001D3D"/>
<path d="M564.151 258.593C555.612 254.828 551.881 245.172 555.826 237.022C559.771 228.873 569.888 225.32 578.427 229.077C586.975 232.842 590.698 242.497 586.761 250.647C582.816 258.797 572.699 262.358 564.151 258.593ZM600.988 260.397L603.757 254.663L598.021 250.467C598.424 249.023 598.687 247.58 598.818 246.129L605.681 244.011L605.081 237.721L597.914 236.818C597.503 235.407 596.969 234.026 596.328 232.701L601.169 227.579L597.347 222.417L590.681 225.053C589.597 224.033 588.405 223.092 587.131 222.245L588.643 215.499L582.635 212.856L578.238 218.323C576.734 217.954 575.214 217.695 573.693 217.57L571.474 211.02L564.883 211.593L563.938 218.433C562.458 218.825 561.012 219.327 559.623 219.947L554.256 215.327L548.848 218.966L551.61 225.335C550.541 226.371 549.555 227.5 548.659 228.716L541.599 227.28L538.821 233.006L544.558 237.211C544.163 238.646 543.9 240.089 543.761 241.54L536.898 243.666L537.498 249.949L544.665 250.851C545.076 252.263 545.61 253.643 546.259 254.977L541.41 260.091L545.232 265.252L551.897 262.617C552.982 263.636 554.174 264.578 555.448 265.425L553.935 272.17L559.943 274.821L564.34 269.347C565.853 269.723 567.373 269.974 568.885 270.1L571.104 276.657L577.696 276.076L578.641 269.237C580.12 268.852 581.567 268.343 582.964 267.723L588.331 272.343L593.739 268.703L590.977 262.342C592.046 261.307 593.024 260.169 593.92 258.954L600.988 260.397Z" fill="#F4F6FC"/>
<path d="M495.96 197.568C483.221 193.545 476.318 180.422 480.55 168.272C484.767 156.114 498.517 149.533 511.256 153.557C523.995 157.581 530.898 170.704 526.674 182.861C522.45 195.011 508.7 201.6 495.96 197.568ZM548.47 194.501L551.437 185.952L542.61 180.877C542.922 178.783 543.062 176.688 543.005 174.61L552.382 170.562L550.475 161.738L540.169 161.558C539.347 159.612 538.361 157.738 537.219 155.957L543.227 147.957L536.947 141.235L527.94 145.988C526.23 144.709 524.397 143.556 522.441 142.544L523.452 132.755L514.494 129.924L509.176 138.348C506.982 138.05 504.787 137.917 502.609 137.972L498.36 129.022L489.122 130.842L488.925 140.686C486.895 141.462 484.931 142.403 483.057 143.494L474.682 137.76L467.63 143.752L472.611 152.349C471.271 153.973 470.063 155.73 469.003 157.597L458.746 156.632L455.779 165.182L464.606 170.256C464.294 172.351 464.154 174.445 464.211 176.516L454.834 180.571L456.741 189.395L467.055 189.576C467.869 191.513 468.855 193.388 469.997 195.168L463.99 203.169L470.26 209.899L479.276 205.145C480.986 206.424 482.827 207.569 484.775 208.581L483.764 218.37L492.722 221.202L498.04 212.777C500.242 213.083 502.437 213.209 504.607 213.154L508.856 222.104L518.102 220.284L518.283 210.448C520.321 209.663 522.285 208.722 524.159 207.632L532.542 213.366L539.594 207.381L534.605 198.784C535.953 197.153 537.153 195.396 538.213 193.537L548.47 194.501Z" fill="#F4F6FC"/>
<path d="M269.476 169.041V195.694C269.476 221.758 284.615 242.897 303.288 242.897C321.961 242.897 337.1 264.021 337.1 290.093C337.1 292.415 335.72 294.297 334.01 294.297H244.5C216.507 294.297 193.815 262.617 193.815 223.539V166.672C193.815 151.126 202.839 138.528 213.975 138.528H247.615C259.688 138.528 269.476 152.192 269.476 169.041Z" fill="#99B9FF"/>
<path d="M273.725 378.563H281.837V283.402H273.725V378.563Z" fill="#99B9FF"/>
<path d="M308.22 378.673L280.177 375.496H277.613L248.987 378.673V381.191H308.22V378.673Z" fill="#99B9FF"/>
<path d="M373.485 350.341L379.123 356.036C381.268 358.208 382.484 361.071 382.517 364.06L382.566 368.366L399.152 364.005C395.536 360.303 391.878 356.883 389.429 352.388L384.3 342.976L373.485 350.341Z" fill="#F4F6FC"/>
<path d="M375.104 350.49L379.903 355.338C382.246 357.699 383.553 360.797 383.585 364.052L383.618 367.033L397.155 363.464C397.122 363.432 397.089 363.401 397.056 363.37C393.785 360.059 390.703 356.938 388.476 352.859L383.914 344.49L375.104 350.49ZM382.566 369.386C382.336 369.386 382.106 369.315 381.917 369.182C381.654 368.994 381.498 368.695 381.49 368.374L381.44 364.075C381.416 361.33 380.314 358.726 378.35 356.742L372.704 351.047C372.498 350.835 372.392 350.537 372.416 350.247C372.449 349.949 372.613 349.682 372.86 349.51L383.676 342.144C383.931 341.972 384.243 341.917 384.547 341.987C384.851 342.05 385.106 342.246 385.246 342.505L390.374 351.918C392.462 355.745 395.453 358.765 398.618 361.966C399.053 362.413 399.489 362.86 399.933 363.307C400.187 363.566 400.278 363.934 400.179 364.279C400.081 364.625 399.793 364.891 399.431 364.985L382.846 369.354C382.755 369.378 382.657 369.386 382.566 369.386Z" fill="black"/>
<path d="M379.542 362.993C379.197 365.307 379.188 369.496 379.147 373.339C379.115 375.755 381.005 377.794 383.503 378.1C390.571 378.971 408.217 379.834 421.868 378.641C422.805 378.563 424.457 377.904 424.918 375.669C426.463 368.154 412.828 366.311 397.886 360.867C397.303 360.648 396.637 360.781 396.185 361.197L394.574 362.695C392.963 364.193 390.571 364.617 388.509 363.77L381.44 361.958C380.61 361.62 379.665 362.13 379.542 362.993Z" fill="#5479F7"/>
<path d="M380.898 362.875C380.84 362.875 380.791 362.891 380.758 362.915C380.709 362.938 380.618 363.001 380.602 363.134C380.306 365.134 380.265 368.68 380.232 372.108L380.216 373.355C380.191 375.237 381.67 376.845 383.643 377.088C390.037 377.873 407.79 378.837 421.778 377.622C422.057 377.598 423.471 377.379 423.866 375.472C424.827 370.829 418.647 368.648 407.658 365.189C404.395 364.17 401.026 363.103 397.5 361.824C397.311 361.746 397.081 361.793 396.933 361.926L395.322 363.424C393.415 365.197 390.612 365.707 388.155 364.742L381.021 362.899C380.98 362.883 380.939 362.875 380.898 362.875ZM406.573 380.241C397.319 380.241 388.328 379.724 383.372 379.112C380.314 378.735 378.038 376.249 378.071 373.331L378.087 372.092C378.128 368.594 378.161 364.985 378.482 362.844C378.588 362.122 379.032 361.495 379.706 361.134C380.347 360.781 381.103 360.734 381.786 360.993L388.928 362.828C390.604 363.511 392.527 363.173 393.826 361.958L395.445 360.46C396.185 359.769 397.294 359.558 398.272 359.91C401.749 361.181 405.094 362.232 408.332 363.252C418.951 366.593 427.334 369.229 425.97 375.865C425.435 378.453 423.479 379.528 421.967 379.661C417.217 380.069 411.85 380.241 406.573 380.241Z" fill="black"/>
<path d="M379.526 372.602C379.526 372.602 379.517 372.994 379.517 373.182C379.493 375.598 381.383 377.637 383.881 377.943C390.95 378.814 408.217 379.834 421.869 378.641C422.805 378.563 424.457 377.904 424.918 375.669C425.057 374.986 424.967 373.747 424.967 373.747L424.005 373.794C410.206 374.445 396.382 374.131 382.64 372.845L379.526 372.602Z" fill="#F4F6FC"/>
<path d="M380.619 373.715C380.849 375.37 382.221 376.712 384.021 376.924C390.202 377.692 407.56 378.861 421.778 377.622C422.057 377.598 423.471 377.378 423.866 375.472C423.898 375.308 423.915 375.072 423.923 374.821C410.165 375.465 396.242 375.143 382.534 373.864L380.619 373.715ZM407.88 380.202C397.631 380.202 388.032 379.481 383.742 378.955C380.693 378.579 378.408 376.092 378.449 373.166L378.457 372.578C378.465 372.304 378.589 372.037 378.81 371.849C379.032 371.653 379.32 371.558 379.616 371.582L382.723 371.825C396.39 373.104 410.255 373.417 423.956 372.774L424.918 372.727C425.501 372.696 426.002 373.119 426.044 373.676C426.052 373.817 426.134 375.072 425.97 375.865C425.435 378.453 423.479 379.528 421.967 379.661C417.439 380.053 412.598 380.202 407.88 380.202Z" fill="black"/>
<path d="M401.313 369.998C401.042 369.998 400.771 369.903 400.557 369.699C400.138 369.299 400.138 368.656 400.549 368.256L405.801 363.228C406.22 362.828 406.894 362.828 407.313 363.228C407.732 363.621 407.732 364.272 407.313 364.672L402.069 369.699C401.864 369.903 401.585 369.998 401.313 369.998Z" fill="black"/>
<path d="M406.467 370.523C406.195 370.523 405.932 370.429 405.727 370.241C405.299 369.849 405.283 369.198 405.694 368.798L409.886 364.617C410.288 364.209 410.97 364.201 411.398 364.585C411.825 364.978 411.842 365.621 411.431 366.037L407.239 370.209C407.034 370.413 406.746 370.523 406.467 370.523Z" fill="black"/>
<path d="M326.153 352.639C330.829 346.317 335.235 333.242 335.235 333.242L345.656 340.207L340.149 349.149C338.308 351.455 338.3 354.938 339.048 357.753L341.037 362.97L326.153 352.639Z" fill="#F4F6FC"/>
<path d="M327.624 352.396L338.834 360.185L338.045 358.099C338.029 358.075 338.021 358.036 338.012 358.005C337.034 354.341 337.503 350.827 339.253 348.584L344.234 340.505L335.793 334.865C334.61 338.199 331.281 347.008 327.624 352.396ZM341.037 363.997C340.815 363.997 340.593 363.927 340.404 363.801L325.528 353.463C325.051 353.134 324.945 352.506 325.282 352.051C329.81 345.925 334.174 333.061 334.215 332.936C334.322 332.622 334.577 332.379 334.898 332.277C335.218 332.175 335.571 332.222 335.851 332.41L346.272 339.368C346.733 339.674 346.864 340.262 346.585 340.725L341.07 349.667C341.045 349.706 341.02 349.737 340.996 349.769C339.607 351.51 339.262 354.381 340.075 357.455L342.04 362.624C342.196 363.048 342.048 363.519 341.678 363.793C341.489 363.927 341.259 363.997 341.037 363.997Z" fill="black"/>
<path d="M326.391 349.117C324.887 350.953 322.15 354.396 320.087 357.698C318.797 359.769 319.356 362.444 321.353 363.919C324.049 365.903 332.333 370.978 337.733 374.233C340.922 376.155 344.571 377.269 348.327 377.473L353.661 377.755C355.37 377.849 357.088 377.7 358.732 377.261C360.367 376.822 362.028 376.092 362.102 374.955C362.291 371.943 359.176 369.997 356.455 368.884C353.382 367.613 350.669 365.66 348.467 363.244C346.165 360.726 343.363 357.612 341.382 355.267C340.988 354.804 340.355 354.6 339.747 354.741L337.569 355.251C335.382 355.769 333.098 354.977 331.758 353.251L328.577 349.149C328.035 348.459 326.95 348.435 326.391 349.117Z" fill="#5479F7"/>
<path d="M327.468 349.643C327.402 349.643 327.312 349.659 327.238 349.753C325.783 351.502 323.054 354.945 321.008 358.216C319.997 359.84 320.424 361.942 322.011 363.111C324.723 365.111 333.385 370.398 338.308 373.37C341.333 375.198 344.818 376.265 348.385 376.453L353.719 376.735C355.387 376.822 356.973 376.673 358.444 376.272C360.45 375.731 361.017 375.135 361.025 374.892C361.181 372.46 358.395 370.79 356.028 369.817C352.905 368.531 350.012 366.491 347.661 363.919C345.549 361.613 342.599 358.342 340.544 355.91C340.412 355.753 340.207 355.683 340.002 355.73L337.824 356.247C335.218 356.859 332.498 355.926 330.895 353.863L327.714 349.761C327.641 349.659 327.534 349.643 327.476 349.643H327.468ZM354.623 378.806C354.286 378.806 353.941 378.79 353.604 378.775L348.27 378.492C344.333 378.28 340.495 377.104 337.166 375.096C331.109 371.441 323.342 366.68 320.696 364.726C318.263 362.93 317.605 359.683 319.167 357.173C321.271 353.8 324.074 350.286 325.553 348.49C326.03 347.909 326.72 347.557 327.509 347.596C328.273 347.604 328.98 347.957 329.44 348.545L332.621 352.647C333.706 354.043 335.547 354.679 337.314 354.263L339.484 353.745C340.495 353.51 341.563 353.855 342.212 354.624C344.242 357.032 347.176 360.279 349.272 362.577C351.417 364.923 354.047 366.774 356.883 367.942C361.173 369.707 363.343 372.155 363.17 375.017C363.08 376.445 361.683 377.527 359.02 378.241C357.631 378.618 356.151 378.806 354.623 378.806Z" fill="black"/>
<path d="M320.4 357.204C320.4 357.204 320.186 357.534 320.087 357.699C318.797 359.769 319.356 362.444 321.353 363.919C325.528 366.993 333.854 372.594 343.018 377.386C348.245 380.108 357.491 378.9 359.455 378.618C360.828 378.422 361.962 377.535 362.011 376.202L362.085 374.084C362.085 374.084 350.004 375.755 345.467 372.931C337.413 367.935 329.703 363.644 321.92 358.255L320.4 357.204Z" fill="#F4F6FC"/>
<path d="M320.753 358.71C320.096 360.24 320.581 362.06 322.011 363.111C326.819 366.656 334.996 372.029 343.536 376.484C348.237 378.939 356.784 377.959 359.299 377.606C360.039 377.504 360.91 377.065 360.935 376.171L360.968 375.245C357.664 375.598 348.845 376.249 344.883 373.786C342.262 372.162 339.648 370.586 337.109 369.064C331.692 365.809 326.564 362.726 321.287 359.079L320.753 358.71ZM352.502 380.155C349.075 380.155 345.294 379.732 342.508 378.281C333.862 373.77 325.569 368.319 320.696 364.727C318.263 362.93 317.605 359.683 319.167 357.173L319.488 356.671C319.644 356.428 319.898 356.255 320.186 356.2C320.482 356.145 320.786 356.208 321.033 356.381L322.545 357.424C327.764 361.032 332.859 364.099 338.251 367.338C340.791 368.86 343.421 370.437 346.051 372.076C349.494 374.217 358.683 373.519 361.929 373.072C362.241 373.025 362.562 373.119 362.792 373.315C363.03 373.519 363.162 373.81 363.154 374.115L363.08 376.233C363.022 377.975 361.633 379.339 359.611 379.63C358.042 379.849 355.395 380.155 352.502 380.155Z" fill="black"/>
<path d="M340.084 364.962C339.607 364.962 339.171 364.656 339.048 364.201C338.9 363.652 339.237 363.095 339.812 362.946L346.987 361.134C347.554 360.993 348.138 361.322 348.294 361.864C348.442 362.413 348.105 362.97 347.53 363.119L340.355 364.923C340.264 364.946 340.174 364.962 340.084 364.962Z" fill="black"/>
<path d="M344.259 367.903C343.79 367.903 343.363 367.605 343.231 367.158C343.067 366.617 343.396 366.052 343.963 365.895L349.782 364.311C350.349 364.154 350.941 364.476 351.105 365.017C351.261 365.558 350.932 366.123 350.365 366.28L344.555 367.856C344.456 367.888 344.357 367.903 344.259 367.903Z" fill="black"/>
<path d="M291.675 247.18C291.675 247.18 357.401 245.078 380.758 258.412C402.965 271.08 342.747 348.694 342.747 348.694L330.213 342.113L346.059 290.078C347.16 286.266 344.842 282.304 340.873 281.23L284.147 265.778L291.675 247.18Z" fill="black"/>
<path d="M257.921 282.995C267.964 286.046 278.123 285.654 303.239 285.324C310.373 285.23 320.474 291.317 323.712 297.412C331.15 311.397 351.524 341.133 377.75 357.455L390.276 350.992L354.031 277.441C351.113 271.135 345.656 266.24 338.908 263.864L275.55 241.595C275.55 241.595 258.998 236.638 249.365 253.447C247.647 256.451 246.472 259.158 245.716 261.589C243.102 269.896 249.299 280.375 257.921 282.995Z" fill="black"/>
<path d="M371.504 312.056C371.093 312.056 370.707 311.828 370.526 311.452L355.025 278.688C352.445 273.104 345.508 267.276 338.539 264.821L308.195 254.153C307.644 253.965 307.357 253.377 307.562 252.843C307.768 252.318 308.384 252.043 308.935 252.239L339.278 262.907C346.864 265.574 354.138 271.715 356.981 277.857L372.474 310.613C372.72 311.122 372.482 311.726 371.94 311.962C371.8 312.024 371.652 312.056 371.504 312.056Z" fill="#001D3D"/>
<path d="M352.264 338.379C351.984 338.379 351.697 338.27 351.483 338.05C349.395 335.909 346.922 333.006 344.111 329.43C343.757 328.975 343.848 328.332 344.325 327.994C344.801 327.657 345.467 327.751 345.82 328.206C348.59 331.72 351.023 334.567 353.053 336.662C353.456 337.077 353.431 337.721 352.995 338.105C352.79 338.293 352.527 338.379 352.264 338.379Z" fill="#001D3D"/>
<path d="M324.994 191.058C322.989 169.943 308.811 167.284 308.811 167.284C308.811 167.284 302.721 164.342 300.913 193.45C299.105 222.566 364.682 232.575 364.682 232.575C364.682 232.575 365.619 231.83 373.46 227.696C376.287 227.5 327.008 212.166 324.994 191.058Z" fill="#5479F7"/>
<path d="M259.408 150.474C259.408 150.474 268.244 149.102 275.591 145.494C278.616 144.011 286.785 141.321 291.749 147.125C295.382 151.376 300.001 157.102 305.261 162.091C307.439 164.162 308.154 167.315 308.154 167.315C308.154 167.315 301.225 166.068 288.585 162.083C275.936 158.099 259.408 150.474 259.408 150.474Z" fill="#99B9FF"/>
<path d="M278.533 270.115C278.533 270.115 258.817 279.708 246.653 271.59C244.722 270.296 243.259 261.558 242.544 259.456C231.867 228.112 237.892 182.83 272.271 163.048C285.034 155.714 300.313 162.883 308.811 167.284C311.91 168.892 316.323 171.739 316.816 172.013C324.756 176.469 297.445 194.133 297.995 213.766C298.332 225.578 304.044 242.921 306.436 244.717C307.8 245.737 308.105 247.588 307.053 248.906C302.853 254.208 292.924 265.017 278.533 270.115Z" fill="#5479F7"/>
<path d="M301.201 178.383C301.982 184.226 292.538 196.784 296.952 204.408C311.055 228.732 327.065 228.841 332.646 229.9L323.252 237.666C323.252 237.666 290.319 243.054 273.134 193.364C273.134 193.364 266.518 173.716 281.229 168.852C284.295 167.848 288.322 167.26 292.177 168.696C298.85 171.19 300.946 177.535 301.201 178.383Z" fill="#5479F7"/>
<path d="M261.693 170.484C261.693 170.484 255.636 170.311 252.833 166.688C247.138 159.322 246.464 144.521 277.983 152.585C288.273 155.212 298.332 164.06 298.332 164.06L306.946 173.174L261.693 170.484Z" fill="#5479F7"/>
<path d="M265.457 168.97C265.186 168.97 264.907 168.868 264.701 168.664C264.282 168.272 264.282 167.621 264.701 167.229C265.12 166.821 275.131 157.424 288.174 159.126C288.766 159.205 289.169 159.714 289.095 160.279C289.012 160.836 288.47 161.22 287.886 161.15C275.912 159.581 266.312 168.578 266.214 168.672C266.008 168.868 265.729 168.97 265.457 168.97Z" fill="#F4F6FC"/>
<path d="M301.751 233.595C301.628 233.595 301.497 233.571 301.365 233.532C289.489 229.147 281.213 223.853 276.068 217.358C269.583 209.185 267.997 198.847 271.367 186.634C271.515 186.085 272.098 185.764 272.673 185.905C273.241 186.046 273.586 186.611 273.438 187.152C267.652 208.134 276.775 222.261 302.138 231.626C302.688 231.822 302.968 232.418 302.754 232.944C302.59 233.352 302.179 233.595 301.751 233.595Z" fill="#F4F6FC"/>
<path d="M322.208 227.932C322.06 227.932 321.92 227.908 321.772 227.845C316.948 225.798 304.546 217.648 297.757 208.095C297.428 207.632 297.552 206.997 298.045 206.675C298.538 206.361 299.204 206.479 299.532 206.95C305.779 215.742 317.712 223.892 322.643 225.978C323.186 226.206 323.432 226.81 323.186 227.328C323.013 227.712 322.619 227.932 322.208 227.932Z" fill="#F4F6FC"/>
<path d="M298.645 208.55C298.3 208.55 297.963 208.393 297.757 208.103C294.618 203.671 294.338 199.067 294.1 195.003C294.067 194.501 294.042 194.015 294.009 193.521C293.968 192.964 294.412 192.478 295.004 192.439C295.587 192.392 296.105 192.823 296.146 193.388C296.179 193.882 296.212 194.384 296.237 194.886C296.475 198.87 296.722 202.996 299.532 206.95C299.861 207.42 299.738 208.055 299.245 208.369C299.064 208.495 298.85 208.55 298.645 208.55Z" fill="#F4F6FC"/>
<path d="M345.245 240.654C336.73 231.689 323.909 229.9 315.148 240.654H345.245Z" fill="#5479F7"/>
<path d="M319.052 236.23C319.504 235.971 323.704 229.736 328.306 228.441C332.909 227.139 342.927 236.834 342.927 236.834L319.052 236.23Z" fill="#F4F6FC"/>
<path d="M321.263 235.258L340.19 235.736C336.361 232.418 331.059 228.732 328.61 229.414C325.717 230.23 322.874 233.352 321.263 235.258ZM342.927 237.854C342.919 237.854 342.911 237.854 342.903 237.854L319.027 237.242C318.55 237.234 318.14 236.928 318.016 236.481C317.909 236.089 318.057 235.673 318.386 235.422C318.485 235.328 318.731 235.022 318.945 234.756C320.465 232.912 324.024 228.575 328.002 227.453C333.073 226.026 342.623 235.077 343.692 236.113C344.004 236.411 344.086 236.858 343.914 237.242C343.741 237.611 343.355 237.854 342.927 237.854Z" fill="black"/>
<path d="M385.55 228.912C382.418 226.402 376.263 224.112 374.175 225.806C372.087 227.5 364.962 232.238 364.962 232.238C364.962 232.238 366.975 234.865 371.882 234.269C376.78 233.673 381.999 232.269 383.775 233.171C385.55 234.073 388.681 231.422 385.55 228.912Z" fill="#F4F6FC"/>
<path d="M366.671 232.34C367.559 232.912 369.186 233.571 371.742 233.257C373.205 233.077 374.701 232.826 376.148 232.583C379.813 231.971 382.714 231.477 384.276 232.269C384.646 232.457 385.295 232.199 385.616 231.744C386.183 230.944 385.385 230.12 384.859 229.696C381.745 227.194 376.23 225.484 374.874 226.582C373.246 227.9 368.767 230.936 366.671 232.34ZM370.46 235.383C366.096 235.383 364.189 232.952 364.099 232.834C363.926 232.614 363.861 232.34 363.902 232.065C363.951 231.798 364.115 231.555 364.354 231.391C364.419 231.351 371.455 226.669 373.485 225.029C376.378 222.676 383.331 225.798 386.24 228.135C388.361 229.838 388.188 231.759 387.391 232.889C386.454 234.222 384.605 234.748 383.273 234.073C382.369 233.61 379.254 234.136 376.517 234.599C375.046 234.85 373.526 235.101 372.014 235.289C371.471 235.352 370.945 235.383 370.46 235.383Z" fill="black"/>
<path d="M303.124 168.037C305.17 168.445 307.225 167.401 308.014 165.542L311.104 158.256C311.408 157.55 312.156 157.118 312.954 157.173L317.523 157.526C318.501 157.597 319.405 157.04 319.742 156.161L321.994 150.263C321.994 150.255 322.002 150.247 322.011 150.247L324.361 149.541C324.83 149.4 325.093 148.929 324.961 148.482L323.572 143.87C323.309 142.976 323.646 138.262 322.685 138.121C322.685 138.121 307.677 129.751 301.636 135.25C300.042 136.709 299.442 138.921 299.902 140.991L300.486 143.611C301.143 146.561 300.699 149.674 299.072 152.247C298.628 152.937 298.119 153.589 297.543 154.185L291.626 160.099C290.615 161.111 290.87 162.766 292.152 163.448C295.07 165.001 299.894 167.386 303.124 168.037Z" fill="#F4F6FC"/>
<path d="M303.346 167.033C304.883 167.346 306.428 166.562 307.02 165.158L310.11 157.871C310.603 156.749 311.778 156.059 313.036 156.153L317.605 156.506C318.09 156.538 318.567 156.263 318.731 155.816L320.983 149.918C321.098 149.619 321.37 149.368 321.682 149.274L323.884 148.615L322.545 144.152C322.422 143.745 322.397 143.117 322.364 142.035C322.339 141.203 322.29 139.556 322.101 138.983C318.074 136.756 306.831 131.932 302.376 135.995C301.102 137.156 300.551 138.991 300.954 140.78L301.529 143.399C302.269 146.717 301.719 150.043 299.984 152.781C299.508 153.534 298.949 154.232 298.324 154.883L292.398 160.805C292.152 161.056 292.037 161.401 292.086 161.754C292.144 162.099 292.357 162.389 292.67 162.562C295.308 163.958 300.19 166.397 303.346 167.033ZM304.02 169.15C303.65 169.15 303.272 169.111 302.902 169.041C299.647 168.374 294.979 166.123 291.634 164.342C290.73 163.864 290.13 163.032 289.974 162.06C289.818 161.079 290.138 160.114 290.853 159.393L296.763 153.479C297.28 152.953 297.749 152.357 298.152 151.722C299.606 149.431 300.058 146.623 299.434 143.823L298.858 141.203C298.308 138.725 299.089 136.167 300.897 134.512C307.192 128.771 321.444 136.277 323.087 137.171C324.369 137.571 324.435 139.532 324.509 141.98C324.526 142.568 324.55 143.392 324.608 143.595L325.988 148.2C326.284 149.172 325.693 150.216 324.682 150.522L322.824 151.078L320.745 156.514C320.244 157.816 318.887 158.655 317.441 158.546L312.863 158.193C312.534 158.169 312.222 158.35 312.091 158.648L309.009 165.927C308.17 167.903 306.173 169.15 304.02 169.15Z" fill="black"/>
<path d="M308.861 143.25C308.515 140.654 307.126 139.579 307.644 138.395C307.924 137.752 308.622 137.438 309.017 137.266C310.981 136.395 313.102 137.548 317.482 139.219C322.923 141.297 323.531 141.572 324.682 141.368C327.599 140.858 329.786 137.956 330.435 135.36C330.624 134.63 331.479 130.732 328.429 128.073C326.219 126.151 322.849 125.625 319.816 126.739C319.734 125.939 319.455 124.77 318.493 124.049C316.192 122.323 311.819 124.41 310.291 125.139C308.877 125.814 306.296 127.288 304.044 130.316C303.601 129.955 301.908 128.669 299.721 128.904C296.475 129.273 295.004 132.701 294.864 133.03C293.294 136.826 295.99 140.905 298.02 143.988C299.475 146.2 300.108 146.694 301.193 147.706C301.406 147.643 301.677 147.557 301.965 147.462C302.812 147.204 303.264 146.317 302.943 145.517L302.918 145.462C302.59 144.615 302.425 143.713 302.499 142.811C302.565 142.089 302.771 141.36 303.321 141.07C304.209 140.599 305.433 141.25 305.606 141.336C306.716 141.933 307.159 143.007 307.332 143.823C307.447 144.356 308.976 144.105 308.861 143.25Z" fill="black"/>
<path d="M341.152 238.481H414.529C414.792 238.481 415.006 238.277 415.006 238.034V231.869C415.006 231.618 414.792 231.414 414.529 231.414H341.152C340.889 231.414 340.675 231.618 340.675 231.869V238.034C340.675 238.277 340.889 238.481 341.152 238.481Z" fill="#99B9FF"/>
<path d="M250.976 371.025C250.434 371.025 249.965 370.625 249.916 370.1L236.141 237.172C236.084 236.615 236.511 236.113 237.103 236.058C237.686 236.003 238.212 236.419 238.27 236.975L252.044 369.903C252.102 370.46 251.675 370.962 251.083 371.017C251.05 371.025 251.017 371.025 250.976 371.025Z" fill="black"/>
<path d="M431.452 223.366L338.522 223.555C337.717 223.555 337.15 222.99 337.207 222.237L341.382 168.146C341.481 166.829 342.779 165.589 344.193 165.589L435.857 165.668L431.452 223.366Z" fill="black"/>
<path d="M344.193 166.609C343.379 166.609 342.516 167.409 342.451 168.225L338.276 222.315C338.267 222.362 338.276 222.433 338.308 222.472C338.35 222.511 338.423 222.535 338.522 222.535L430.457 222.347L434.706 166.688L344.193 166.609ZM338.53 224.574C337.824 224.574 337.191 224.323 336.747 223.868C336.303 223.414 336.089 222.81 336.139 222.159L340.314 168.076C340.462 166.178 342.237 164.57 344.193 164.57L435.857 164.648C436.153 164.648 436.44 164.766 436.638 164.978C436.843 165.182 436.95 165.456 436.925 165.746L432.52 223.445C432.479 223.978 432.01 224.394 431.452 224.394L338.53 224.574Z" fill="black"/>
<path d="M433.366 223.304H342.336C341.53 223.304 340.963 222.739 341.021 221.978L345.138 168.374C345.253 166.884 346.766 165.566 348.36 165.566H438.216C439.029 165.566 439.596 166.139 439.539 166.892L435.331 221.586C435.265 222.496 434.345 223.304 433.366 223.304Z" fill="#99B9FF"/>
<path d="M348.368 166.586C347.333 166.586 346.281 167.495 346.207 168.452L342.089 222.049C342.089 222.096 342.089 222.174 342.13 222.213C342.163 222.253 342.245 222.276 342.336 222.276H433.366C433.777 222.276 434.238 221.884 434.271 221.507L438.47 166.813C438.479 166.774 438.479 166.695 438.429 166.648C438.396 166.609 438.314 166.586 438.224 166.586H348.368ZM433.366 224.323H342.336C341.645 224.323 341.004 224.065 340.56 223.61C340.117 223.155 339.903 222.551 339.952 221.9L344.07 168.295C344.226 166.264 346.19 164.546 348.368 164.546H438.224C438.922 164.546 439.547 164.797 439.999 165.26C440.443 165.715 440.657 166.319 440.607 166.962L436.407 221.664C436.292 223.1 434.903 224.323 433.366 224.323Z" fill="black"/>
<path d="M377.882 236.513H391.812L395.289 200.376C395.33 199.945 395.026 199.616 394.574 199.616H382.994C382.106 199.616 381.366 200.282 381.284 201.153L377.882 236.513Z" fill="black"/>
<path d="M380.076 236.513H394.007L397.434 200.361H383.503L380.076 236.513Z" fill="#99B9FF"/>
<path d="M381.243 235.485H393.029L396.259 201.388H384.481L381.243 235.485ZM393.999 237.532H380.076C379.772 237.532 379.484 237.415 379.279 237.195C379.082 236.991 378.983 236.701 379.008 236.418L382.435 200.267C382.484 199.741 382.944 199.341 383.503 199.341H397.426C397.73 199.341 398.018 199.459 398.223 199.678C398.429 199.882 398.527 200.165 398.494 200.455L395.067 236.599C395.018 237.124 394.558 237.532 393.999 237.532Z" fill="black"/>
<path d="M404.1 237.187H365.66C365.463 237.187 365.307 237.03 365.307 236.842V231.195C365.307 231.006 365.463 230.857 365.66 230.857H404.1C404.289 230.857 404.445 231.006 404.445 231.195V236.842C404.445 237.03 404.289 237.187 404.1 237.187Z" fill="black"/>
<path d="M406.417 236.63H367.28V231.406H406.417V236.63Z" fill="#99B9FF"/>
<path d="M368.34 235.611H405.341V232.434H368.34V235.611ZM406.417 237.65H367.271C366.688 237.65 366.203 237.195 366.203 236.63V231.414C366.203 230.842 366.688 230.387 367.271 230.387H406.417C407.009 230.387 407.486 230.842 407.486 231.414V236.63C407.486 237.195 407.009 237.65 406.417 237.65Z" fill="black"/>
<path d="M229.994 248.906H485.071C485.572 248.906 485.983 248.121 485.983 247.157V238.795C485.983 237.838 485.572 237.054 485.071 237.054H229.994C229.492 237.054 229.089 237.838 229.089 238.795V247.157C229.089 248.121 229.492 248.906 229.994 248.906Z" fill="#99B9FF"/>
<path d="M230.289 247.878H484.783C484.84 247.737 484.906 247.486 484.906 247.157V238.803C484.906 238.474 484.84 238.223 484.783 238.081H230.289C230.224 238.223 230.158 238.474 230.158 238.803V247.157C230.158 247.486 230.224 247.737 230.289 247.878ZM485.071 249.925H229.993C228.851 249.925 228.021 248.765 228.021 247.157V238.803C228.021 237.195 228.851 236.034 229.993 236.034H485.071C486.221 236.034 487.051 237.195 487.051 238.803V247.157C487.051 248.765 486.221 249.925 485.071 249.925Z" fill="black"/>
<path d="M314.162 246.568C313.57 246.568 313.093 246.113 313.093 245.549V240.097C313.093 239.532 313.57 239.078 314.162 239.078C314.753 239.078 315.238 239.532 315.238 240.097V245.549C315.238 246.113 314.753 246.568 314.162 246.568Z" fill="#5479F7"/>
<path d="M293.714 390.227C293.138 390.227 292.662 389.787 292.645 389.23L290.336 302.173C290.319 301.608 290.779 301.145 291.371 301.129C291.955 301.098 292.456 301.561 292.473 302.126L294.782 389.183C294.798 389.74 294.33 390.211 293.746 390.227C293.73 390.227 293.722 390.227 293.714 390.227Z" fill="black"/>
<path d="M470.178 306.016C470.145 306.016 470.113 306.008 470.08 306.008C469.496 305.961 469.052 305.467 469.102 304.902L474.107 248.819C474.156 248.255 474.674 247.839 475.257 247.886C475.849 247.933 476.285 248.427 476.236 248.992L471.239 305.083C471.189 305.616 470.721 306.016 470.178 306.016Z" fill="black"/>
<path d="M594.158 315.209V345.752C594.158 375.629 576.808 399.843 555.415 399.843C534.013 399.843 516.663 424.057 516.663 453.926C516.663 456.592 518.25 458.75 520.214 458.75H622.776C654.862 458.75 680.866 422.449 680.866 377.669V312.495C680.866 294.682 670.527 280.241 657.763 280.241H619.209C605.377 280.241 594.158 295.905 594.158 315.209Z" fill="#99B9FF"/>
<path d="M600.338 555.314H591.051V446.262H600.338V555.314Z" fill="#99B9FF"/>
<path d="M560.823 555.439L592.95 551.8H595.892L628.701 555.439V558.326H560.823V555.439Z" fill="#99B9FF"/>
<path d="M574.318 405.2H489.065C488.407 405.2 487.865 404.683 487.865 404.055V398.008C487.865 397.372 488.407 396.862 489.065 396.862H574.318C574.976 396.862 575.51 397.372 575.51 398.008V404.055C575.51 404.683 574.976 405.2 574.318 405.2Z" fill="#5479F7"/>
<path d="M522.014 498.329C522.129 498.776 516.68 522.684 516.68 522.684L529.205 520.668L532.978 500.455L522.014 498.329Z" fill="#5479F7"/>
<path d="M523.329 514.84C522.565 514.221 521.471 513.617 520.083 513.562C517.979 513.475 516.064 514.73 515.201 516.582C513.023 521.217 507.302 534.104 505.683 544.639C505.108 548.364 508.042 551.392 512.603 548.953C520.091 544.96 530.471 535.775 535.904 522.213C536.528 520.66 536.315 518.903 535.279 517.554C534.449 516.464 533.315 515.13 531.991 514.001C530.734 512.919 528.835 512.903 527.529 513.93L526.353 514.856C525.474 515.554 524.208 515.546 523.329 514.84Z" fill="#F4F6FC"/>
<path d="M519.877 514.581C518.332 514.581 516.853 515.538 516.17 517.005C513.861 521.923 508.313 534.481 506.735 544.795C506.497 546.349 506.974 547.729 507.993 548.388C508.995 549.047 510.45 548.937 512.077 548.066C519.655 544.019 529.633 535.006 534.901 521.853C535.402 520.605 535.221 519.217 534.416 518.158C533.38 516.809 532.328 515.664 531.276 514.762C530.405 514.017 529.123 514.001 528.211 514.723L527.036 515.648C525.762 516.66 523.904 516.644 522.639 515.617C521.833 514.974 520.954 514.621 520.025 514.581C519.976 514.581 519.926 514.581 519.877 514.581ZM509.513 550.859C508.248 550.859 507.327 550.443 506.776 550.074C505.083 548.961 504.261 546.827 504.615 544.497C506.242 533.932 511.872 521.17 514.214 516.166C515.283 513.899 517.65 512.44 520.115 512.542C521.513 512.597 522.86 513.122 524.019 514.064C524.496 514.44 525.195 514.448 525.671 514.072L526.847 513.146C528.581 511.773 531.046 511.813 532.707 513.24C533.874 514.244 535.024 515.491 536.142 516.958C537.383 518.582 537.671 520.684 536.906 522.582C531.433 536.246 521.028 545.627 513.121 549.847C511.708 550.6 510.508 550.859 509.513 550.859Z" fill="black"/>
<path d="M508.51 546.662C508.478 546.662 508.461 546.662 508.445 546.662C507.853 546.639 507.393 546.168 507.409 545.603C507.434 545.047 507.935 544.607 508.51 544.623C508.683 544.623 518.882 544.348 531.4 520.629C531.663 520.127 532.312 519.923 532.838 520.182C533.364 520.433 533.578 521.045 533.315 521.547C520.378 546.058 509.53 546.662 508.51 546.662Z" fill="black"/>
<path d="M516.54 533.304C516.409 533.304 516.277 533.281 516.146 533.234L510.212 530.991C509.661 530.779 509.39 530.19 509.612 529.657C509.826 529.132 510.45 528.881 511.001 529.084L516.935 531.336C517.485 531.54 517.757 532.136 517.535 532.661C517.37 533.061 516.968 533.304 516.54 533.304Z" fill="black"/>
<path d="M518.62 528.943C518.496 528.943 518.365 528.92 518.233 528.873L511.264 526.276C510.721 526.073 510.442 525.476 510.664 524.951C510.878 524.425 511.502 524.167 512.045 524.37L519.014 526.967C519.565 527.179 519.836 527.767 519.622 528.292C519.45 528.692 519.047 528.943 518.62 528.943Z" fill="black"/>
<path d="M575.461 498.266C575.551 498.447 576.25 501.255 576.792 505.985C577.688 513.86 568.499 521.154 568.499 521.154L590.279 518.339L589.449 500.102L575.461 498.266Z" fill="#5479F7"/>
<path d="M585.257 513.044C583.975 512.644 584.271 510.754 583.219 509.859C581.649 508.51 579.677 508.534 577.795 509.444C573.093 511.718 560.264 518.252 552.152 525.453C549.284 527.994 549.588 532.136 554.725 533.014C563.141 534.473 577.178 533.665 590.23 526.441C591.717 525.61 592.695 524.111 592.769 522.441C592.835 521.076 592.769 516.566 592.481 514.879C592.202 513.271 590.739 512.103 589.054 512.111H587.542C586.4 512.118 586.334 513.389 585.257 513.044Z" fill="#F4F6FC"/>
<path d="M580.375 509.828C579.611 509.828 578.879 510.071 578.279 510.362C573.282 512.777 560.815 519.154 552.875 526.198C551.692 527.257 551.166 528.614 551.511 529.751C551.864 530.889 553.072 531.697 554.913 532.01C563.436 533.485 577.038 532.559 589.687 525.555C590.887 524.896 591.643 523.712 591.701 522.394C591.766 521.092 591.701 516.66 591.421 515.044C591.232 513.938 590.246 513.13 589.071 513.13C589.062 513.13 589.062 513.13 589.062 513.13L587.542 513.138C587.476 513.138 587.435 513.146 587.189 513.381C586.843 513.719 586.112 514.401 584.92 514.017C583.696 513.632 583.334 512.542 583.063 511.742C582.907 511.271 582.759 510.832 582.504 510.62C581.83 510.032 581.09 509.828 580.375 509.828ZM562.343 534.646C559.467 534.646 556.82 534.418 554.535 534.026C550.919 533.399 549.801 531.438 549.456 530.324C548.881 528.441 549.637 526.292 551.421 524.7C559.557 517.484 572.239 510.989 577.31 508.534C579.734 507.365 582.15 507.569 583.934 509.099C584.624 509.679 584.887 510.479 585.101 511.122C585.241 511.53 585.38 511.946 585.545 512.056C585.586 512.017 585.635 511.977 585.676 511.938C586.005 511.624 586.564 511.091 587.542 511.091H589.054C589.054 511.091 589.062 511.091 589.071 511.091C591.298 511.091 593.18 512.613 593.533 514.715C593.837 516.487 593.903 521.084 593.837 522.488C593.747 524.504 592.596 526.308 590.764 527.328C581 532.732 570.661 534.646 562.343 534.646Z" fill="black"/>
<path d="M562.573 530.983C555.818 530.983 553.163 528.865 552.974 528.7C552.53 528.331 552.489 527.68 552.884 527.257C553.27 526.841 553.936 526.802 554.388 527.163C554.511 527.265 562.606 533.273 587.764 522.472C588.298 522.237 588.931 522.472 589.169 522.982C589.416 523.5 589.178 524.104 588.635 524.339C576.537 529.539 568.154 530.983 562.573 530.983Z" fill="black"/>
<path d="M568.631 523.492C568.253 523.492 567.891 523.296 567.694 522.966L564.546 517.601C564.25 517.107 564.439 516.487 564.957 516.213C565.466 515.938 566.116 516.111 566.412 516.605L569.559 521.962C569.847 522.456 569.666 523.084 569.157 523.358C568.984 523.445 568.803 523.492 568.631 523.492Z" fill="black"/>
<path d="M573.085 521.366C572.724 521.366 572.37 521.194 572.173 520.872L568.623 515.287C568.31 514.809 568.475 514.181 568.984 513.883C569.486 513.593 570.143 513.75 570.455 514.228L573.998 519.813C574.31 520.299 574.146 520.927 573.636 521.217C573.472 521.319 573.274 521.366 573.085 521.366Z" fill="black"/>
<path d="M634.488 406.345C634.488 406.345 558.234 403.169 549.892 410.597C538.583 420.66 519.154 504.486 519.154 504.486L537.909 509.53C537.909 509.53 566.173 440.74 573.176 440.74C580.178 440.74 646.216 438.481 646.216 438.481L634.488 406.345Z" fill="black"/>
<path d="M649.495 404.032C649.495 404.032 659.555 432.348 651.55 437.509C643.545 442.67 585.849 442.231 587.846 441.587C589.852 440.944 593.008 487.944 593.008 506.016L574.844 506.691C574.844 506.691 545.898 434.003 549.013 425.884C554.601 411.366 597.569 408.04 611.319 406.102C614.154 405.694 649.495 404.032 649.495 404.032Z" fill="black"/>
<path d="M558.612 466.342C558.16 466.342 557.733 466.068 557.593 465.629C556.935 463.675 556.286 461.754 555.653 459.871C550.27 443.917 546.013 431.312 547.993 425.563C551.741 414.73 574.63 410.15 591.52 407.648C592.103 407.561 592.646 407.938 592.736 408.503C592.835 409.059 592.432 409.577 591.849 409.663C582.438 411.06 553.796 415.311 550.032 426.206C548.265 431.32 552.637 444.262 557.691 459.252C558.324 461.134 558.974 463.056 559.631 465.009C559.812 465.55 559.5 466.123 558.933 466.295C558.826 466.327 558.711 466.342 558.612 466.342Z" fill="#001D3D"/>
<path d="M635.211 320.08C635.211 320.08 647.21 313.436 655.725 369.629C655.725 369.629 641.12 399.835 640.865 404.079C640.602 408.33 602.204 406.479 602.204 406.479L601.325 342.066L592.827 341.666L594.873 327.061C596.065 322.731 598.736 320.566 602.114 319.413L635.211 320.08Z" fill="#F4F6FC"/>
<path d="M619.768 441.368L609.346 441.807C605.705 441.964 602.073 441.972 598.44 441.838L587.838 441.454C587.838 441.454 588.956 444.097 590.673 460.483C590.673 460.483 617.483 463.417 627.493 460.036C637.487 456.663 619.768 441.368 619.768 441.368Z" fill="#5479F7"/>
<path d="M605.368 405.804C605.344 402.596 603.782 327.453 604.152 323.453L613.719 315.758C611.985 316.087 596.977 317.076 593.632 320.809C583.285 332.395 586.35 397.56 574.359 388.25L572.929 392.917L605.368 405.804Z" fill="#5479F7"/>
<path d="M626.162 315.931C626.162 315.931 645.18 318.809 651.336 329.39C657.492 339.964 666.59 363.095 665.538 371.723C662.365 397.655 652.363 391.929 653.086 396.588C653.44 398.847 653.769 411.538 662.719 426.48C670.091 438.795 671.776 464.719 670.576 465.464C662.481 470.445 649.38 480.83 632.827 480.822C629.77 480.822 627.123 478.79 626.458 475.904C623.82 464.358 616.546 430.904 613.48 399.819C610.817 372.9 624.436 333.493 624.904 330.049C626.047 321.704 626.162 315.931 626.162 315.931Z" fill="#5479F7"/>
<path d="M630.312 383.363C630.115 383.363 629.926 383.316 629.753 383.214C629.244 382.916 629.088 382.289 629.4 381.81C633.099 376.053 632.729 363.464 632.088 352.129C632.055 351.565 632.507 351.086 633.099 351.055C633.682 351.031 634.192 351.463 634.224 352.02C635.063 366.884 634.849 377.229 631.216 382.877C631.019 383.191 630.666 383.363 630.312 383.363Z" fill="#F4F6FC"/>
<path d="M641.901 430.371C630.756 430.371 624.954 420.402 624.888 420.276C624.6 419.782 624.798 419.162 625.324 418.896C625.841 418.621 626.491 418.809 626.77 419.303C627.074 419.845 634.496 432.52 649.01 426.896C649.552 426.684 650.185 426.935 650.407 427.461C650.629 427.986 650.366 428.583 649.815 428.794C646.931 429.908 644.292 430.371 641.901 430.371Z" fill="#001D3D"/>
<path d="M585.364 402.016C593.722 394.548 604.703 392.846 613.538 400.125C615.338 401.616 614.278 404.447 611.894 404.447H586.383C585.06 404.447 584.394 402.886 585.364 402.016Z" fill="#5479F7"/>
<path d="M592.654 387.513C594.413 389.199 593.024 388.932 592.547 391.278C591.651 395.662 586.679 394.956 583.005 395.278C579.315 395.599 575.617 395.749 571.918 395.803C568.721 395.85 565.212 396.109 562.056 395.67L556.672 394.933C553.04 394.439 549.267 395.348 546.276 397.458L542.717 399.961C541.887 400.541 540.785 399.78 541.229 398.91C542.684 396.054 545.035 391.889 547.607 389.317C549.58 387.348 553.097 387.371 556.278 387.952C561.793 388.964 571.556 387.371 577.203 386.713C585.471 385.756 580.983 385.952 587.328 386.422C587.558 386.438 592.506 387.364 592.654 387.513Z" fill="#F4F6FC"/>
<path d="M552.842 388.626C551.116 388.626 549.44 388.972 548.388 390.023C546.07 392.337 543.908 396.031 542.429 398.886L545.643 396.627C548.848 394.376 552.933 393.388 556.837 393.921L562.212 394.658C564.562 394.98 567.168 394.909 569.691 394.831C570.439 394.815 571.178 394.792 571.91 394.784C575.986 394.721 579.586 394.548 582.906 394.258C583.564 394.203 584.254 394.172 584.92 394.148C588.651 394.007 590.961 393.733 591.495 391.082C591.701 390.078 592.062 389.458 592.292 389.042C592.342 388.964 592.391 388.877 592.432 388.807C592.383 388.744 592.284 388.611 592.07 388.391C591.166 388.164 587.64 387.489 587.213 387.434C585.495 387.309 584.567 387.207 583.95 387.128C582.989 387.018 582.997 387.018 581.296 387.238C580.449 387.348 579.224 387.505 577.334 387.724C576.389 387.834 575.337 387.975 574.203 388.117C568.573 388.838 560.847 389.827 556.08 388.956C555.078 388.775 553.952 388.626 552.842 388.626ZM542.084 401.176C541.615 401.176 541.147 401.027 540.769 400.729C540.062 400.172 539.865 399.263 540.268 398.47C541.804 395.427 544.196 391.254 546.834 388.611C548.766 386.689 552.004 386.124 556.491 386.948C560.905 387.756 568.425 386.791 573.923 386.093C575.058 385.944 576.126 385.811 577.071 385.701C578.953 385.481 580.17 385.324 581.008 385.214C582.865 384.971 582.98 384.963 584.205 385.105C584.805 385.167 585.701 385.277 587.41 385.403C587.46 385.403 592.851 386.242 593.418 386.791C594.857 388.164 594.807 388.932 594.174 390.03C593.969 390.376 593.739 390.783 593.599 391.474C592.695 395.905 588.249 396.07 585.002 396.188C584.337 396.211 583.695 396.243 583.104 396.298C579.726 396.588 576.077 396.76 571.934 396.823C571.228 396.831 570.488 396.855 569.756 396.878C567.143 396.949 564.439 397.027 561.899 396.682L556.524 395.945C553.179 395.482 549.67 396.329 546.917 398.274L543.358 400.776C542.972 401.043 542.528 401.176 542.084 401.176Z" fill="black"/>
<path d="M639.978 385.552C641.934 387.528 642.887 390.407 642.427 393.105C641.572 398.125 636.148 397.192 632.162 397.466C628.159 397.741 624.14 397.819 620.129 397.796C616.653 397.772 612.839 397.976 609.396 397.396L603.527 396.415C599.566 395.749 595.49 396.705 592.292 399.059L588.495 401.851C587.608 402.502 586.391 401.592 586.843 400.612C588.339 397.349 590.797 392.619 593.517 389.725C595.613 387.505 599.435 387.615 602.911 388.368C608.935 389.67 615.239 389.089 620.992 386.94C626.713 384.799 633.871 380.296 639.443 385.057C639.632 385.214 639.805 385.379 639.978 385.552Z" fill="#F4F6FC"/>
<path d="M598.835 388.909C597.059 388.909 595.374 389.278 594.314 390.407C591.717 393.168 589.35 397.702 587.83 401.02L591.635 398.243C595.062 395.725 599.467 394.698 603.716 395.403L609.585 396.392C612.157 396.823 614.984 396.8 617.721 396.776C618.543 396.776 619.34 396.768 620.138 396.776C624.576 396.8 628.48 396.698 632.079 396.447C632.786 396.4 633.542 396.384 634.266 396.368C638.334 396.306 640.849 396.039 641.375 392.941C641.769 390.572 640.931 388.015 639.197 386.25C639.049 386.101 638.893 385.952 638.728 385.818C634.619 382.304 629.449 384.509 624.444 386.634C623.384 387.089 622.381 387.521 621.387 387.889C615.272 390.18 608.804 390.682 602.673 389.364C601.489 389.113 600.141 388.909 598.835 388.909ZM587.83 403.09C587.369 403.09 586.901 402.941 586.506 402.651C585.717 402.063 585.463 401.075 585.865 400.196C587.452 396.745 589.934 391.999 592.72 389.042C594.758 386.877 598.259 386.32 603.141 387.371C608.853 388.603 614.894 388.124 620.606 385.983C621.551 385.63 622.529 385.214 623.581 384.767C628.669 382.602 635.005 379.904 640.158 384.297C640.364 384.469 640.561 384.658 640.758 384.846C642.945 387.066 643.988 390.289 643.487 393.262C642.632 398.274 637.816 398.361 634.307 398.415C633.575 398.431 632.885 398.439 632.236 398.486C628.578 398.737 624.617 398.847 620.121 398.816C619.34 398.808 618.551 398.816 617.746 398.823C614.91 398.847 611.976 398.863 609.215 398.4L603.347 397.419C599.689 396.808 595.892 397.702 592.942 399.867L589.145 402.659C588.758 402.949 588.298 403.09 587.83 403.09Z" fill="black"/>
<path d="M618.724 304.714C620.68 306.714 622.061 309.75 623.285 309.985C625.858 310.479 638.063 309.044 645.92 301.396C653.613 293.905 655.01 281.198 650.974 278.398C648.073 276.398 643.125 280.022 638.77 276.908C636.838 275.535 637.364 274.508 635.309 273.041C631.858 270.586 627.214 271.26 623.663 271.817C617.179 272.845 617.302 274.563 611.59 275.645C603.454 277.198 598.999 274.539 597.298 276.947C595.942 278.861 596.821 285.544 598.884 287.732C603.158 292.274 609.445 285.881 612.7 290.038C614.713 292.619 614.237 296.007 617.121 302.298C617.351 302.808 617.795 303.757 618.724 304.714Z" fill="black"/>
<path d="M612.141 310.409C612.256 310.111 612.363 309.805 612.47 309.483C612.708 308.801 612.1 308.15 611.36 308.259C610.094 308.448 608.927 308.322 608.155 307.867C606.807 307.075 606.626 305.632 606.158 303.883C605.96 303.153 605.788 302.306 605.04 301.529C604.645 301.129 604.193 300.847 603.758 300.659C603.215 300.416 602.952 299.827 603.125 299.286L603.207 299.129C604.538 296.502 605.311 293.646 605.492 290.736L605.779 286.046C605.804 285.654 606.092 285.316 606.478 285.199C609.182 284.391 610.185 284.65 610.563 285.105C610.711 285.293 610.933 285.418 610.883 286.266C610.62 290.36 614.483 290.125 617.738 289.521C619.702 289.152 619.965 291.074 619.866 292.65C619.825 293.317 620.483 293.78 621.149 293.584C621.905 293.364 622.858 293.443 623.803 294.447C625.209 295.945 622.546 298.094 620.598 299.365C620.318 299.545 620.162 299.867 620.179 300.188L620.82 311.562C620.992 314.683 624.025 314.809 627.033 316.017C627.058 316.025 627.082 316.033 627.107 316.04L635.252 318.401C635.252 318.401 613.316 326.551 600.281 319.57C600.224 319.531 600.232 319.445 600.298 319.421L607.275 317.491C607.349 317.476 607.415 317.452 607.481 317.421C609.93 316.213 611.409 312.448 612.141 310.409Z" fill="#F4F6FC"/>
<path d="M603.1 319.711C612.634 323.296 625.808 320.205 631.742 318.456L626.795 317.021C626.729 316.997 626.671 316.982 626.614 316.958C625.997 316.707 625.365 316.503 624.748 316.307C622.488 315.578 619.924 314.754 619.751 311.617L619.11 300.243C619.069 299.561 619.406 298.902 619.99 298.525C622.192 297.082 623.055 295.984 623.121 295.451C623.137 295.333 623.121 295.254 623.006 295.129C622.34 294.415 621.831 294.454 621.461 294.564C620.803 294.752 620.096 294.635 619.562 294.235C619.036 293.843 618.757 293.223 618.79 292.588C618.872 291.372 618.658 290.736 618.453 290.564C618.346 290.47 618.107 290.485 617.943 290.517C615.658 290.94 612.806 291.254 611.113 289.834C610.152 289.027 609.708 287.803 609.815 286.203C609.831 285.913 609.798 285.818 609.798 285.818L609.716 285.732C609.724 285.748 609.617 285.693 609.297 285.693C608.894 285.693 608.155 285.779 606.848 286.156L606.56 290.791C606.371 293.858 605.566 296.808 604.168 299.576L604.144 299.623C604.144 299.671 604.168 299.71 604.201 299.733C604.834 300.008 605.385 300.376 605.829 300.839C606.692 301.733 606.955 302.714 607.144 303.428L607.193 303.624C607.259 303.883 607.316 304.126 607.382 304.361C607.744 305.796 607.974 306.557 608.722 307.004C609.239 307.31 610.168 307.404 611.204 307.248C611.927 307.138 612.642 307.397 613.11 307.93C613.571 308.448 613.71 309.154 613.488 309.805C613.373 310.126 613.267 310.44 613.16 310.746C612.215 313.366 610.645 317.013 607.965 318.331C607.842 318.386 607.711 318.441 607.579 318.472L603.1 319.711ZM613.645 323.437C608.787 323.437 603.881 322.661 599.763 320.456C599.352 320.245 599.122 319.813 599.18 319.374C599.229 318.935 599.549 318.566 600.002 318.441L606.979 316.511C609.215 315.421 610.653 311.405 611.13 310.079C611.228 309.812 611.319 309.538 611.426 309.256C609.93 309.491 608.549 309.303 607.596 308.746C606.059 307.836 605.697 306.385 605.303 304.84C605.245 304.612 605.188 304.377 605.114 304.141L605.064 303.93C604.9 303.318 604.752 302.737 604.259 302.228C604.004 301.961 603.684 301.749 603.305 301.584C602.278 301.129 601.769 300.016 602.106 298.972C602.122 298.933 602.138 298.886 602.163 298.839L602.245 298.682C603.511 296.164 604.242 293.466 604.423 290.674L604.711 285.983C604.76 285.175 605.344 284.469 606.157 284.218C608.048 283.661 610.349 283.183 611.401 284.485C611.787 284.909 612.009 285.371 611.943 286.328C611.886 287.277 612.075 287.921 612.527 288.297C613.645 289.238 616.571 288.697 617.532 288.517C618.699 288.297 619.447 288.674 619.866 289.027C620.672 289.701 621.033 290.909 620.943 292.611C622.225 292.219 623.54 292.635 624.608 293.764C625.118 294.313 625.34 294.98 625.25 295.694C625.077 297.051 623.77 298.525 621.247 300.18L621.888 311.507C621.978 313.177 623.104 313.617 625.439 314.37C626.088 314.581 626.754 314.801 627.444 315.076L635.564 317.421C636 317.554 636.304 317.923 636.32 318.362C636.337 318.794 636.065 319.194 635.638 319.358C635.005 319.586 624.477 323.437 613.645 323.437Z" fill="black"/>
<path d="M612.445 308.856C611.985 308.856 611.557 308.565 611.418 308.118C611.253 307.577 611.574 307.012 612.141 306.855C615.083 306.024 616.636 301.859 616.653 301.82C616.85 301.286 617.458 300.996 618.017 301.184C618.576 301.373 618.872 301.945 618.675 302.479C618.601 302.698 616.76 307.695 612.741 308.816C612.65 308.84 612.544 308.856 612.445 308.856Z" fill="black"/>
<path d="M471.781 388.085L581.353 388.313C582.315 388.313 582.981 387.646 582.907 386.752L577.984 322.982C577.869 321.429 576.34 319.962 574.671 319.962L466.587 320.049L471.781 388.085Z" fill="black"/>
<path d="M472.775 387.073L581.353 387.293C581.526 387.293 581.665 387.246 581.739 387.16C581.838 387.066 581.846 386.932 581.838 386.838L576.915 323.053C576.833 321.994 575.74 320.99 574.671 320.99L467.737 321.076L472.775 387.073ZM581.353 389.332L471.781 389.113C471.214 389.113 470.753 388.697 470.712 388.164L465.518 320.127C465.493 319.845 465.592 319.57 465.798 319.366C466.003 319.154 466.282 319.029 466.587 319.029L574.671 318.943C576.841 318.943 578.896 320.794 579.052 322.904L583.975 386.681C584.033 387.387 583.794 388.054 583.309 388.556C582.816 389.058 582.126 389.332 581.353 389.332Z" fill="black"/>
<path d="M469.521 388.007H576.858C577.819 388.007 578.477 387.34 578.411 386.446L573.554 323.241C573.422 321.484 571.639 319.939 569.748 319.939H463.801C462.839 319.939 462.173 320.605 462.247 321.492L467.195 385.991C467.285 387.058 468.37 388.007 469.521 388.007Z" fill="#99B9FF"/>
<path d="M463.792 320.958C463.628 320.958 463.488 320.998 463.406 321.084C463.316 321.186 463.307 321.327 463.307 321.421L468.272 385.912C468.313 386.454 468.929 386.987 469.513 386.987H576.858C577.022 386.987 577.162 386.94 577.244 386.854C577.343 386.76 577.351 386.618 577.343 386.524L572.485 323.319C572.387 322.104 571.055 320.958 569.748 320.958H463.792ZM576.858 389.026H469.513C467.811 389.026 466.258 387.677 466.135 386.069L461.171 321.57C461.121 320.856 461.36 320.19 461.836 319.696C462.329 319.194 463.02 318.911 463.792 318.911H569.748C572.214 318.911 574.441 320.864 574.622 323.17L579.479 386.375C579.529 387.089 579.29 387.756 578.814 388.25C578.321 388.752 577.622 389.026 576.858 389.026Z" fill="black"/>
<path d="M534.942 403.584H518.513L514.42 360.977C514.37 360.467 514.732 360.083 515.266 360.083H528.918C529.961 360.083 530.833 360.867 530.931 361.895L534.942 403.584Z" fill="black"/>
<path d="M532.361 403.584H515.932L511.897 360.962H528.318L532.361 403.584Z" fill="#99B9FF"/>
<path d="M516.918 402.565H531.194L527.34 361.981H513.072L516.918 402.565ZM532.361 404.604H515.94C515.381 404.604 514.921 404.204 514.872 403.679L510.828 361.056C510.804 360.765 510.902 360.483 511.108 360.271C511.305 360.06 511.593 359.942 511.897 359.942H528.318C528.877 359.942 529.337 360.342 529.386 360.867L533.43 403.49C533.454 403.781 533.356 404.063 533.15 404.275C532.953 404.487 532.665 404.604 532.361 404.604Z" fill="black"/>
<path d="M504.023 404.377H549.374C549.596 404.377 549.777 404.204 549.777 403.992V397.302C549.777 397.082 549.596 396.917 549.374 396.917H504.023C503.809 396.917 503.629 397.082 503.629 397.302V403.992C503.629 404.204 503.809 404.377 504.023 404.377Z" fill="black"/>
<path d="M501.303 403.726H547.459V397.568H501.303V403.726Z" fill="#99B9FF"/>
<path d="M502.371 402.706H546.383V398.596H502.371V402.706ZM547.459 404.745H501.303C500.711 404.745 500.234 404.29 500.234 403.726V397.576C500.234 397.011 500.711 396.549 501.303 396.549H547.459C548.051 396.549 548.528 397.011 548.528 397.576V403.726C548.528 404.29 548.051 404.745 547.459 404.745Z" fill="black"/>
<path d="M668.727 556.749C668.71 556.749 668.71 556.749 668.702 556.749C668.11 556.734 667.642 556.271 667.65 555.706L670.362 421.586C670.379 421.021 670.88 420.566 671.455 420.582C672.047 420.59 672.516 421.06 672.507 421.625L669.787 555.745C669.779 556.302 669.302 556.749 668.727 556.749Z" fill="black"/>
<path d="M690.071 547.321C690.046 547.321 690.022 547.313 689.997 547.313C689.413 547.282 688.961 546.796 688.994 546.231L697.476 416.181L440.854 416.55L441.232 442.568C441.24 443.133 440.763 443.595 440.172 443.603C439.604 443.595 439.095 443.156 439.087 442.599L438.692 415.538C438.692 415.272 438.799 415.005 439.004 414.809C439.202 414.613 439.473 414.503 439.769 414.503L698.61 414.134C698.931 414.15 699.194 414.252 699.391 414.456C699.596 414.668 699.703 414.942 699.679 415.225L691.139 546.356C691.106 546.898 690.63 547.321 690.071 547.321Z" fill="black"/>
<path d="M701.972 416.072H433.654C433.136 416.072 432.717 415.672 432.717 415.177V402.996C432.717 402.502 433.136 402.102 433.654 402.102H701.972C702.489 402.102 702.917 402.502 702.917 402.996V415.177C702.917 415.672 702.489 416.072 701.972 416.072Z" fill="#99B9FF"/>
<path d="M434.805 403.122C434.246 403.122 433.794 403.553 433.794 404.086V414.079C433.794 414.613 434.246 415.044 434.805 415.044H700.829C701.396 415.044 701.848 414.613 701.848 414.079V404.086C701.848 403.553 701.396 403.122 700.829 403.122H434.805ZM700.829 417.091H434.805C433.062 417.091 431.649 415.734 431.649 414.079V404.086C431.649 402.424 433.062 401.082 434.805 401.082H700.829C702.572 401.082 703.985 402.424 703.985 404.086V414.079C703.985 415.734 702.572 417.091 700.829 417.091Z" fill="black"/>
<path d="M613.431 413.13C612.839 413.13 612.363 412.675 612.363 412.111V405.687C612.363 405.122 612.839 404.667 613.431 404.667C614.015 404.667 614.5 405.122 614.5 405.687V412.111C614.5 412.675 614.015 413.13 613.431 413.13Z" fill="#5479F7"/>
<path d="M264.882 440.521V485.348C264.882 529.194 284.558 580.735 315.962 580.735L345.155 583.52C376.567 583.52 378.613 600.266 378.613 644.105C378.613 648.011 376.287 651.18 373.419 651.18H222.884C175.799 651.18 137.631 597.905 137.631 532.183V436.536C137.631 410.393 152.811 389.207 171.534 389.207H228.111C248.42 389.207 264.882 412.181 264.882 440.521Z" fill="#99B9FF"/>
<path d="M279.503 583.355C279.503 583.355 352.782 578.728 357.072 651.18C347.094 651.18 328.577 651.18 308.877 651.18C306.346 651.18 295.308 628.7 292.752 628.7C290.705 628.7 297.141 651.18 295.094 651.18C263.896 651.18 233.988 651.18 233.988 651.18C233.988 651.18 220.065 630.465 197.644 626.245C175.232 622.025 161.079 607.302 164.926 596.031C193.954 599.419 268.359 607.757 279.503 583.355Z" fill="#5479F7"/>
<path d="M347.464 475.786C351.319 474.806 382.912 571.943 438.117 572.625L383.051 573.331C383.051 573.331 325.783 531.092 324.641 500.094C323.852 478.688 347.464 475.786 347.464 475.786Z" fill="#F4F6FC"/>
<path d="M347.308 476.845C344.514 477.261 325.002 480.885 325.709 500.062C326.778 529.092 379.008 568.986 383.413 572.303L425.312 571.762C388.657 561.369 364.107 510.659 352.987 487.669C350.546 482.626 348.229 477.849 347.308 476.845ZM383.051 574.351C382.813 574.351 382.583 574.272 382.394 574.131C380.043 572.398 324.715 531.249 323.572 500.133C322.783 478.618 345.845 474.986 347.267 474.79C348.886 474.437 349.938 476.492 354.927 486.814C367.132 512.032 395.708 571.072 438.133 571.605C438.717 571.605 439.185 572.068 439.185 572.625C439.185 573.182 438.717 573.637 438.133 573.645L383.068 574.351C383.06 574.351 383.06 574.351 383.051 574.351Z" fill="black"/>
<path d="M312.115 547.251C312.115 547.251 314.827 596.368 274.013 600.784C233.199 605.192 164.983 596.031 164.983 596.031C164.983 596.031 184.166 451.235 270.874 445.996C301.34 444.152 343.404 449.063 338.719 463.534C326.843 500.204 312.115 547.251 312.115 547.251Z" fill="black"/>
<path d="M166.183 595.16C174.994 596.282 236.445 603.82 273.89 599.765C290.36 597.984 301.62 588.658 307.348 572.045C311.663 559.534 311.055 547.423 311.047 547.298C311.039 547.188 311.055 547.07 311.088 546.96C311.236 546.482 325.956 499.49 337.7 463.236C338.349 461.213 337.98 459.393 336.566 457.675C329.366 448.953 297.543 445.407 270.939 447.008C226.706 449.69 200.554 490.007 186.401 523.359C172.438 556.287 167.095 589.066 166.183 595.16ZM248.034 602.996C209.669 602.996 165.378 597.113 164.835 597.043C164.252 596.964 163.841 596.454 163.915 595.905C163.964 595.537 168.912 559.15 184.421 522.59C193.543 501.082 204.499 483.708 216.967 470.954C232.632 454.922 250.746 446.184 270.808 444.968C297.584 443.36 330.32 446.811 338.251 456.412C340.108 458.663 340.61 461.158 339.738 463.832C328.355 498.996 314.17 544.262 313.192 547.376C313.266 549.008 313.586 560.507 309.387 572.68C303.453 589.874 291.264 599.945 274.128 601.796C266.255 602.651 257.313 602.996 248.034 602.996Z" fill="black"/>
<path d="M365.167 493.944L335.481 455.22L314.753 514.04L342.574 535.046L365.167 493.944Z" fill="#5479F7"/>
<path d="M321.139 519.405C321.09 519.405 321.041 519.398 320.992 519.39C320.4 519.311 319.997 518.794 320.079 518.237L325.873 479.355C325.956 478.798 326.498 478.406 327.082 478.492C327.665 478.571 328.076 479.089 327.994 479.645L322.2 518.519C322.126 519.037 321.665 519.405 321.139 519.405Z" fill="black"/>
<path d="M284.451 439.062L256.441 448.192C298.447 460.201 317.375 450.467 317.375 450.467L306.428 445.509L309.14 439.517C311.91 440.772 314.515 442.144 316.471 441.383C321.008 439.603 323.482 432.387 323.482 432.387L325.536 432.63C325.841 432.669 326.145 432.575 326.383 432.387C326.613 432.198 326.745 431.924 326.753 431.626C326.876 427.704 326.72 424.778 327.895 421.452C329.046 418.158 329.925 418.197 330.994 410.212L312.304 398.172L302.812 411.546C302.812 411.546 301.184 407.922 297.691 409.161C295.152 410.056 294.001 417.774 296.368 419.295L284.451 439.062Z" fill="#F4F6FC"/>
<path d="M260 448.113C291.305 456.459 308.967 452.365 314.745 450.404L305.968 446.435C305.45 446.2 305.22 445.611 305.45 445.101L308.162 439.109C308.277 438.858 308.491 438.654 308.762 438.56C309.041 438.458 309.337 438.473 309.6 438.591L310.373 438.944C312.617 439.979 314.729 440.952 316.068 440.434C319.414 439.125 321.822 433.955 322.463 432.065C322.627 431.602 323.112 431.312 323.613 431.367L325.676 431.618C325.709 430.959 325.717 430.347 325.734 429.759C325.791 426.7 325.849 424.057 326.876 421.123C327.197 420.221 327.484 419.57 327.772 418.935C328.487 417.327 329.12 415.931 329.843 410.707L312.592 399.592L303.699 412.118C303.486 412.424 303.108 412.597 302.713 412.566C302.327 412.526 301.99 412.291 301.834 411.946C301.702 411.671 300.51 409.256 298.061 410.118C297.404 410.354 296.516 412.009 296.228 414.276C295.949 416.495 296.401 418.088 296.968 418.448C297.437 418.754 297.576 419.343 297.297 419.805L285.371 439.572C285.248 439.783 285.034 439.948 284.796 440.027L260 448.113ZM294.765 455.243C285.133 455.243 272.345 453.808 256.129 449.172C255.685 449.047 255.381 448.655 255.365 448.215C255.357 447.768 255.652 447.368 256.096 447.227L283.719 438.215L295.037 419.468C293.755 417.829 293.985 414.974 294.108 414.032C294.404 411.656 295.398 408.879 297.322 408.204C299.853 407.31 301.727 408.408 302.845 409.687L311.425 397.6C311.754 397.137 312.419 397.011 312.904 397.333L331.585 409.365C331.922 409.577 332.103 409.954 332.054 410.338C331.249 416.37 330.517 418.009 329.736 419.743C329.473 420.331 329.194 420.943 328.906 421.766C327.986 424.41 327.936 426.786 327.871 429.798C327.862 430.394 327.846 431.014 327.83 431.657C327.805 432.238 327.534 432.787 327.082 433.163C326.621 433.54 326.005 433.712 325.405 433.65L324.197 433.501C323.375 435.524 320.918 440.748 316.882 442.325C314.729 443.164 312.28 442.097 309.683 440.897L307.825 445.007L317.836 449.549C318.205 449.714 318.435 450.059 318.452 450.443C318.46 450.827 318.246 451.188 317.885 451.369C317.4 451.62 310.052 455.243 294.765 455.243Z" fill="black"/>
<path d="M296.508 409.42C296.508 409.42 302.442 408.934 302.023 411.507C301.439 415.091 300.691 415.805 301.382 417.225C301.751 417.986 302.746 418.519 303.576 418.527C305.327 418.55 305.894 415.766 308.992 412.668C310.299 411.358 311.671 410.385 312.452 409.938C318.452 406.534 325.249 414.236 332.531 412.024C337.38 410.55 341.218 405.059 340.265 401.357C339.87 399.804 338.497 398.078 326.556 394.329C314.474 390.54 308.425 388.642 304.809 390.384C296.319 394.47 296.483 408.393 296.508 409.42Z" fill="black"/>
<path d="M309.14 440.536C308.926 440.536 308.713 440.474 308.524 440.348L303.74 437.132C301.39 435.556 300.182 432.889 300.584 430.167L300.773 428.904C300.856 428.339 301.398 427.955 301.982 428.033C302.573 428.112 302.976 428.63 302.894 429.186L302.705 430.449C302.417 432.41 303.28 434.332 304.973 435.461L309.757 438.677C310.241 439.007 310.356 439.642 310.02 440.105C309.806 440.387 309.477 440.536 309.14 440.536Z" fill="black"/>
<path d="M196.017 490.611C196.017 490.611 197.957 545.031 210.984 566.201C226.533 591.474 305.014 557.432 305.014 557.432L314.145 552.475C320.318 549.125 327.673 548.404 334.429 550.498L342.451 552.977C344.325 553.557 345.779 551.361 344.423 549.988C339.928 545.431 332.95 538.968 326.646 535.705C321.797 533.202 315.526 535.556 310.217 538.772C301.02 544.341 290.204 546.953 279.331 546.647L248.231 545.76C242.987 545.611 238.689 541.721 238.237 536.716L233.528 473.833L196.017 490.611Z" fill="#F4F6FC"/>
<path d="M197.11 491.246C197.398 497.553 199.938 546.239 211.904 565.683C226.657 589.646 302.327 557.463 304.529 556.522L313.619 551.588C320.038 548.106 327.739 547.353 334.758 549.525L342.779 552.004C343.355 552.184 343.659 551.792 343.741 551.674C343.823 551.549 344.062 551.11 343.642 550.686C339.023 546.003 332.235 539.76 326.128 536.607C321.526 534.222 315.247 536.936 310.792 539.634C301.579 545.211 290.689 547.996 279.298 547.666L248.198 546.78C242.412 546.615 237.67 542.325 237.168 536.803L232.574 475.386L197.11 491.246ZM234.769 576.578C223.731 576.578 214.509 573.951 210.055 566.719C197.045 545.572 195.023 492.878 194.941 490.642C194.932 490.234 195.171 489.858 195.557 489.685L233.076 472.908C233.396 472.766 233.766 472.782 234.07 472.955C234.374 473.119 234.571 473.425 234.596 473.763L239.305 536.638C239.708 541.117 243.563 544.599 248.264 544.741L279.364 545.627C290.327 545.941 300.798 543.266 309.65 537.909C316.825 533.555 322.717 532.512 327.156 534.81C333.509 538.089 340.478 544.497 345.204 549.29C346.157 550.247 346.289 551.643 345.549 552.765C344.809 553.879 343.437 554.357 342.122 553.949L334.1 551.463C327.649 549.47 320.572 550.161 314.671 553.361L305.548 558.318C305.516 558.334 305.491 558.35 305.458 558.357C303.132 559.369 263.016 576.578 234.769 576.578Z" fill="black"/>
<path d="M257.995 446.176C220.92 447.29 190.798 468.39 183.27 520.048L244.097 513.938L257.995 446.176Z" fill="black"/>
<path d="M256.688 447.251C228.243 448.482 193.297 462.13 184.527 518.896L243.193 512.997L256.688 447.251ZM183.27 521.068C182.982 521.068 182.703 520.958 182.497 520.755C182.267 520.535 182.169 520.221 182.21 519.907C185.818 495.145 194.768 476.139 208.814 463.417C221.536 451.894 238.073 445.753 257.962 445.156C258.291 445.141 258.603 445.282 258.817 445.517C259.022 445.753 259.113 446.066 259.047 446.372L245.149 514.134C245.058 514.574 244.672 514.903 244.204 514.958L183.385 521.06C183.344 521.068 183.311 521.068 183.27 521.068Z" fill="black"/>
<path d="M244.097 514.958C243.513 514.958 243.028 514.511 243.02 513.954L242.445 472.853C242.437 472.288 242.913 471.825 243.497 471.817C243.505 471.817 243.513 471.817 243.513 471.817C244.097 471.817 244.574 472.264 244.59 472.821L245.165 513.923C245.174 514.487 244.697 514.95 244.105 514.958H244.097Z" fill="#F4F6FC"/>
<path d="M336.155 578.68H465.033C465.329 578.68 465.576 578.453 465.576 578.171V566.836C465.576 566.554 465.329 566.319 465.033 566.319H336.155C335.851 566.319 335.613 566.554 335.613 566.836V578.171C335.613 578.453 335.851 578.68 336.155 578.68Z" fill="#99B9FF"/>
<path d="M340.922 577.096C327.739 565.087 309.954 562.985 296.541 576.861C295.259 578.186 296.22 580.343 298.102 580.343H339.558C341.325 580.343 342.204 578.265 340.922 577.096Z" fill="#F4F6FC"/>
<path d="M317.77 568.272C317.507 568.272 317.236 568.28 316.973 568.287C309.773 568.507 302.984 571.707 297.33 577.559C296.869 578.037 297.058 578.563 297.124 578.712C297.215 578.892 297.478 579.324 298.102 579.324H339.558C340.117 579.324 340.338 578.908 340.388 578.782C340.445 578.649 340.593 578.202 340.182 577.833C333.394 571.645 325.462 568.272 317.77 568.272ZM339.558 581.371H298.102C296.812 581.371 295.686 580.665 295.168 579.535C294.634 578.382 294.864 577.096 295.76 576.17C301.809 569.911 309.124 566.476 316.907 566.24C325.438 565.981 334.224 569.574 341.662 576.351C342.566 577.174 342.845 578.422 342.377 579.535C341.916 580.649 340.807 581.371 339.558 581.371Z" fill="black"/>
<path d="M470.976 555.424L308.499 555.753C307.077 555.753 306.091 554.765 306.198 553.447L313.496 458.883C313.677 456.585 315.929 454.404 318.403 454.404L478.677 454.545L470.976 555.424Z" fill="#F4F6FC"/>
<path d="M318.403 455.432C316.57 455.432 314.704 457.142 314.564 458.954L307.258 553.526C307.233 553.871 307.332 554.169 307.546 554.381C307.768 554.608 308.105 554.734 308.499 554.734L469.973 554.404L477.526 455.565L318.403 455.432ZM308.499 556.781C307.496 556.781 306.6 556.42 305.976 555.777C305.359 555.141 305.055 554.287 305.129 553.369L312.428 458.805C312.649 455.918 315.444 453.385 318.403 453.385L478.676 453.518C478.981 453.518 479.26 453.643 479.465 453.847C479.663 454.051 479.77 454.334 479.745 454.616L472.044 555.494C472.003 556.028 471.534 556.444 470.975 556.444L308.499 556.781Z" fill="#F4F6FC"/>
<path d="M474.329 555.306H315.164C313.751 555.306 312.765 554.31 312.863 552.992L320.063 459.275C320.268 456.671 322.915 454.365 325.709 454.365H482.811C484.224 454.365 485.21 455.353 485.112 456.679L477.764 552.31C477.641 553.894 476.03 555.306 474.329 555.306Z" fill="#5479F7"/>
<path d="M325.709 455.385C323.473 455.385 321.296 457.275 321.131 459.346L313.932 553.063C313.907 553.416 314.005 553.714 314.211 553.934C314.433 554.161 314.77 554.286 315.164 554.286H474.329C475.463 554.286 476.613 553.29 476.696 552.239L484.043 456.6C484.076 456.255 483.969 455.949 483.764 455.738C483.542 455.51 483.205 455.385 482.81 455.385H325.709ZM474.329 556.326H315.164C314.17 556.326 313.274 555.973 312.649 555.322C312.025 554.687 311.729 553.832 311.795 552.914L318.994 459.197C319.241 456.075 322.372 453.337 325.709 453.337H482.81C483.805 453.337 484.701 453.698 485.334 454.349C485.95 454.977 486.254 455.84 486.18 456.749L478.833 552.388C478.668 554.522 476.605 556.326 474.329 556.326Z" fill="black"/>
<path d="M377.315 578.398H401.675L407.749 515.225C407.823 514.464 407.28 513.891 406.491 513.891H386.257C384.703 513.891 383.413 515.06 383.265 516.582L377.315 578.398Z" fill="black"/>
<path d="M381.145 578.398H405.497L411.488 515.201H387.136L381.145 578.398Z" fill="#5479F7"/>
<path d="M382.312 577.378H404.519L410.321 516.221H388.114L382.312 577.378ZM405.497 579.426H381.145C380.84 579.426 380.553 579.3 380.356 579.088C380.15 578.877 380.051 578.594 380.076 578.304L386.068 515.107C386.117 514.581 386.577 514.181 387.136 514.181H411.488C411.792 514.181 412.08 514.299 412.285 514.511C412.491 514.723 412.589 515.005 412.557 515.287L406.565 578.492C406.516 579.018 406.056 579.426 405.497 579.426Z" fill="black"/>
<path d="M423.356 579.582H355.724C355.502 579.582 355.321 579.41 355.321 579.198V568.899C355.321 568.688 355.502 568.515 355.724 568.515H423.356C423.578 568.515 423.759 568.688 423.759 568.899V579.198C423.759 579.41 423.578 579.582 423.356 579.582Z" fill="black"/>
<path d="M427.202 578.61H358.765V569.488H427.202V578.61Z" fill="#5479F7"/>
<path d="M359.833 577.59H426.126V570.507H359.833V577.59ZM427.202 579.63H358.765C358.173 579.63 357.696 579.175 357.696 578.61V569.488C357.696 568.923 358.173 568.46 358.765 568.46H427.202C427.794 568.46 428.271 568.923 428.271 569.488V578.61C428.271 579.175 427.794 579.63 427.202 579.63Z" fill="black"/>
<path d="M119.961 596.902H526C526.518 596.902 526.937 596.502 526.937 596.007V577.088C526.937 576.586 526.518 576.186 526 576.186H119.961C119.443 576.186 119.024 576.586 119.024 577.088V596.007C119.024 596.502 119.443 596.902 119.961 596.902Z" fill="#99B9FF"/>
<path d="M121.103 577.214C120.553 577.214 120.092 577.645 120.092 578.179V594.909C120.092 595.443 120.553 595.882 121.103 595.882H524.849C525.416 595.882 525.868 595.443 525.868 594.909V578.179C525.868 577.645 525.416 577.214 524.849 577.214H121.103ZM524.849 597.921H121.103C119.369 597.921 117.947 596.572 117.947 594.909V578.179C117.947 576.516 119.369 575.167 121.103 575.167H524.849C526.592 575.167 528.005 576.516 528.005 578.179V594.909C528.005 596.572 526.592 597.921 524.849 597.921Z" fill="black"/>
<path d="M254.116 592.054C253.524 592.054 253.047 591.591 253.047 591.034V581.504C253.047 580.94 253.524 580.485 254.116 580.485C254.707 580.485 255.184 580.94 255.184 581.504V591.034C255.184 591.591 254.707 592.054 254.116 592.054Z" fill="#5479F7"/>
<path d="M128.615 645.046C128.056 645.046 127.588 644.639 127.547 644.097L124.004 597.623C123.963 597.058 124.407 596.564 124.999 596.525C125.591 596.486 126.1 596.909 126.141 597.474L129.684 643.948C129.725 644.513 129.281 644.999 128.689 645.046C128.665 645.046 128.64 645.046 128.615 645.046Z" fill="black"/>
<path d="M510.204 647.007C510.162 647.007 510.121 647 510.088 647C509.497 646.937 509.069 646.435 509.135 645.87L514.592 596.87C514.658 596.305 515.184 595.897 515.776 595.96C516.359 596.023 516.787 596.525 516.729 597.082L511.264 646.09C511.206 646.615 510.738 647.007 510.204 647.007Z" fill="black"/>
<path d="M591.939 619.186C591.528 619.186 591.134 618.966 590.953 618.582C590.714 618.072 590.953 617.46 591.495 617.233C612.239 608.393 635.934 589.474 654.878 566.617C655.248 566.178 655.922 566.099 656.39 566.452C656.851 566.797 656.925 567.44 656.563 567.888C637.413 590.987 613.415 610.134 592.366 619.099C592.227 619.162 592.079 619.186 591.939 619.186Z" fill="black"/>
<path d="M594.207 634.685C593.821 634.685 593.451 634.481 593.262 634.136C592.983 633.626 593.197 633.014 593.723 632.755C624.395 617.68 638.926 603.592 650.062 590.611C650.432 590.179 651.106 590.109 651.566 590.47C652.026 590.823 652.092 591.466 651.722 591.905C640.446 605.051 625.726 619.327 594.701 634.567C594.544 634.654 594.372 634.685 594.207 634.685Z" fill="black"/>
<path d="M576.907 641.03C576.463 641.03 576.052 640.764 575.896 640.34C575.699 639.807 576.003 639.226 576.554 639.038L585.052 636.23C585.602 636.042 586.219 636.324 586.416 636.858C586.605 637.391 586.309 637.971 585.75 638.152L577.26 640.968C577.145 641.007 577.022 641.03 576.907 641.03Z" fill="black"/>
<path d="M561.16 633.932C560.116 633.932 559.072 634.238 558.16 634.865C557.067 635.634 556.352 636.763 556.146 638.042C555.941 639.321 556.261 640.607 557.067 641.65C557.864 642.701 559.048 643.384 560.395 643.58C561.735 643.776 563.083 643.462 564.176 642.701C566.436 641.117 566.929 638.073 565.277 635.916C564.275 634.622 562.73 633.932 561.16 633.932ZM561.184 645.682C560.815 645.682 560.445 645.65 560.067 645.596C558.16 645.321 556.483 644.341 555.341 642.858C554.199 641.376 553.738 639.556 554.026 637.728C554.322 635.909 555.341 634.308 556.894 633.218C560.108 630.975 564.645 631.642 566.995 634.708C569.354 637.775 568.655 642.097 565.442 644.348C564.184 645.227 562.713 645.682 561.184 645.682Z" fill="black"/>
<path d="M157.151 146.521C156.847 146.521 156.551 146.404 156.337 146.168C155.951 145.745 156 145.094 156.444 144.733C189.401 117.429 241.426 101.631 241.952 101.475C242.519 101.302 243.119 101.608 243.291 102.141C243.472 102.675 243.16 103.255 242.593 103.42C242.075 103.577 190.461 119.256 157.849 146.27C157.652 146.435 157.397 146.521 157.151 146.521Z" fill="black"/>
<path d="M143.13 141.07C142.825 141.07 142.53 140.952 142.316 140.717C141.93 140.293 141.979 139.65 142.423 139.274C175.364 111.993 222.178 96.1879 222.646 96.031C223.205 95.8506 223.813 96.1251 224.01 96.6585C224.199 97.1919 223.912 97.7802 223.353 97.9606C222.884 98.1174 176.448 113.797 143.828 140.827C143.631 140.991 143.376 141.07 143.13 141.07Z" fill="black"/>
<path d="M143.179 157.981C143.179 157.981 143.179 157.981 143.171 157.981C142.579 157.981 142.11 157.518 142.11 156.953L142.127 154.875C142.127 154.318 142.604 153.863 143.195 153.863H143.204C143.795 153.863 144.272 154.326 144.264 154.891L144.247 156.969C144.247 157.526 143.771 157.981 143.179 157.981Z" fill="black"/>
<path d="M143.113 167.935C143.113 167.935 143.113 167.935 143.105 167.935C142.513 167.935 142.036 167.472 142.045 166.907L142.053 164.829C142.061 164.272 142.538 163.817 143.13 163.817C143.13 163.817 143.13 163.817 143.138 163.817C143.73 163.817 144.206 164.28 144.198 164.844L144.182 166.923C144.182 167.48 143.705 167.935 143.113 167.935Z" fill="black"/>
<path d="M149.483 161.934L147.296 161.926C146.705 161.926 146.228 161.471 146.228 160.907C146.228 160.342 146.705 159.887 147.296 159.887H149.483C150.074 159.887 150.551 160.342 150.551 160.914C150.551 161.471 150.074 161.934 149.483 161.934Z" fill="black"/>
<path d="M139.012 161.919L136.826 161.911C136.234 161.911 135.757 161.456 135.757 160.891C135.757 160.326 136.234 159.871 136.826 159.871H139.012C139.604 159.871 140.089 160.334 140.08 160.899C140.08 161.456 139.604 161.919 139.012 161.919Z" fill="black"/>
<path d="M689.726 247.855C689.298 247.855 688.896 247.604 688.731 247.204C670.362 202.549 641.687 174.272 620.869 158.412C598.3 141.211 579.833 134.497 579.652 134.434C579.093 134.238 578.814 133.65 579.019 133.116C579.225 132.591 579.849 132.324 580.4 132.52C580.589 132.583 599.311 139.383 622.135 156.757C643.183 172.782 672.162 201.341 690.728 246.459C690.942 246.984 690.671 247.58 690.12 247.784C689.989 247.831 689.857 247.855 689.726 247.855Z" fill="black"/>
<path d="M647.473 160.122C647.177 160.122 646.881 160.005 646.676 159.777C646.347 159.424 613.341 124.174 555.374 107.851C554.798 107.695 554.478 107.13 554.651 106.589C554.815 106.047 555.407 105.734 555.974 105.898C614.565 122.394 647.95 158.067 648.279 158.428C648.665 158.844 648.624 159.495 648.18 159.871C647.974 160.036 647.72 160.122 647.473 160.122Z" fill="black"/>
<path d="M655.232 175.653C656.884 177.81 660.072 178.281 662.341 176.696C664.601 175.112 665.094 172.076 663.434 169.919C661.782 167.754 658.593 167.291 656.325 168.868C655.232 169.637 654.517 170.766 654.311 172.045C654.106 173.323 654.434 174.61 655.232 175.653ZM659.341 179.677C657.114 179.677 654.919 178.704 653.506 176.861C652.363 175.371 651.903 173.551 652.191 171.731C652.487 169.911 653.506 168.311 655.059 167.221C658.273 164.978 662.809 165.644 665.168 168.711C667.519 171.778 666.82 176.1 663.606 178.343C662.324 179.245 660.82 179.677 659.341 179.677Z" fill="black"/>
</svg>
